<svg xmlns="http://www.w3.org/2000/svg" xmlns:xlink="http://www.w3.org/1999/xlink" viewBox="0 0 378.07 366.43"><defs><style>.cls-1{fill:#695b46;}.cls-2{fill:#564a3a;}.cls-3{fill:#b58c65;}.cls-4{fill:#a17d5b;}.cls-5{fill:#e6e6e6;}.cls-6{fill:#fff;}.cls-7{fill:#a8825e;}.cls-8{fill:#b3b3b3;}.cls-9{fill:#4540e0;}.cls-10{fill:#a0a0a0;}.cls-11{fill:#283f4f;}.cls-12{fill:#46708c;}.cls-13{fill:#2f4a5f;}.cls-14{fill:#41d9ff;}.cls-15{fill:#267c55;}.cls-15,.cls-58{fill-rule:evenodd;}.cls-16{fill:#e8e8e8;}.cls-17{fill:#1a1a1a;}.cls-18{fill:#fd9a00;}.cls-19{fill:url(#linear-gradient);}.cls-20{fill:url(#linear-gradient-2);}.cls-21{fill:#181818;}.cls-22{fill:url(#linear-gradient-3);}.cls-23{fill:url(#linear-gradient-4);}.cls-24{fill:#c0b5ce;}.cls-25{fill:url(#linear-gradient-5);}.cls-26{fill:#6258e0;}.cls-27{fill:#3439e0;}.cls-28{fill:url(#linear-gradient-6);}.cls-29{fill:url(#linear-gradient-7);}.cls-30{fill:url(#linear-gradient-8);}.cls-31{fill:#b7cebd;}.cls-32{fill:url(#linear-gradient-9);}.cls-33{fill:#94e072;}.cls-34{fill:#8de05f;}.cls-35{fill:#80e03f;}.cls-36{fill:url(#linear-gradient-10);}.cls-37{fill:url(#linear-gradient-11);}.cls-38{fill:url(#linear-gradient-12);}.cls-39{fill:url(#linear-gradient-13);}.cls-40{fill:#e07268;}.cls-41{fill:#e06057;}.cls-42{fill:#e04c45;}.cls-43{fill:url(#linear-gradient-14);}.cls-44{fill:url(#linear-gradient-15);}.cls-45{fill:url(#linear-gradient-16);}.cls-46{fill:#f0f0f0;}.cls-47{fill:#0a1114;}.cls-48{fill:#1c2d3a;}.cls-49{fill:#858e8e;}.cls-50{fill:#07b900;}.cls-51{fill:#949a9c;}.cls-52{fill:#0e171b;}.cls-53{fill:#0f0f0f;}.cls-54{fill:#666;}.cls-55{fill:#4d4d4d;}.cls-56{fill:#999;}.cls-57,.cls-59{fill:#ccc;}.cls-58{fill:#bdbdbd;}.cls-59{stroke:gray;stroke-miterlimit:10;stroke-width:0.4px;}.cls-60{fill:url(#linear-gradient-17);}.cls-61{fill:#ff9843;}.cls-62{fill:url(#linear-gradient-18);}.cls-63{fill:#333;}.cls-64{fill:url(#linear-gradient-19);}.cls-65{fill:url(#linear-gradient-20);}.cls-66{fill:#51aacf;}.cls-67{fill:#96281b;}.cls-68{fill:#362d26;}.cls-69{fill:#db5535;}.cls-70{fill:#063f77;}.cls-71{fill:#054296;}.cls-72{fill:#771e17;}.cls-73{fill:#832e3d;}.cls-74{fill:#982f41;}.cls-75{fill:#1a3333;}.cls-76{fill:#214142;}.cls-77{fill:#ffb104;}.cls-78{fill:#192833;}.cls-79{fill:#ddd;}</style><linearGradient id="linear-gradient" x1="198.86" y1="89.16" x2="200.73" y2="89.54" gradientTransform="matrix(-0.99, 0.15, 0.15, 0.99, 312.77, -42.25)" gradientUnits="userSpaceOnUse"><stop offset="0.43" stop-color="#a9a382"/><stop offset="0.8" stop-color="#7c775f"/><stop offset="1" stop-color="#a9a382"/></linearGradient><linearGradient id="linear-gradient-2" x1="198.74" y1="64.26" x2="200.77" y2="64.26" gradientTransform="matrix(-1, 0, 0, 1, 324.33, -13.71)" gradientUnits="userSpaceOnUse"><stop offset="0" stop-color="#aeaeae"/><stop offset="0.46" stop-color="#9e9e9e"/><stop offset="0.81" stop-color="#7c7c7c"/><stop offset="0.86" stop-color="#7f7f7f"/><stop offset="0.9" stop-color="#898989"/><stop offset="0.94" stop-color="#9a9a9a"/><stop offset="0.97" stop-color="#b2b2b2"/><stop offset="1" stop-color="#c8c8c8"/></linearGradient><linearGradient id="linear-gradient-3" x1="199.08" y1="62.91" x2="200.99" y2="63.3" gradientTransform="matrix(-0.99, 0.15, 0.15, 0.99, 312.77, -42.25)" gradientUnits="userSpaceOnUse"><stop offset="0.43" stop-color="#aeaeae"/><stop offset="0.66" stop-color="gray"/><stop offset="0.73" stop-color="#878787"/><stop offset="0.83" stop-color="#9c9c9c"/><stop offset="0.96" stop-color="#bdbdbd"/><stop offset="1" stop-color="#c8c8c8"/></linearGradient><linearGradient id="linear-gradient-4" x1="199.08" y1="65.55" x2="200.99" y2="65.94" xlink:href="#linear-gradient-3"/><linearGradient id="linear-gradient-5" x1="174.82" y1="94.2" x2="176.7" y2="94.58" gradientTransform="matrix(-0.97, 0.25, 0.25, 0.97, 274.58, -60.08)" gradientUnits="userSpaceOnUse"><stop offset="0.43" stop-color="#8680a9"/><stop offset="0.8" stop-color="#5e5d7c"/><stop offset="1" stop-color="#8680a9"/></linearGradient><linearGradient id="linear-gradient-6" x1="174.71" y1="69.3" x2="176.74" y2="69.3" gradientTransform="matrix(-1, 0, 0, 1, 297.39, -18.5)" xlink:href="#linear-gradient-2"/><linearGradient id="linear-gradient-7" x1="175.04" y1="67.95" x2="176.96" y2="68.34" gradientTransform="matrix(-1, 0, 0, 1, 297.11, -18.39)" xlink:href="#linear-gradient-3"/><linearGradient id="linear-gradient-8" x1="175.04" y1="70.59" x2="176.96" y2="70.97" gradientTransform="matrix(-1, 0, 0, 1, 297.79, -18.42)" xlink:href="#linear-gradient-3"/><linearGradient id="linear-gradient-9" x1="232.31" y1="58.26" x2="234.18" y2="58.64" gradientTransform="matrix(-1, -0.06, -0.06, 1, 365.11, 30.65)" gradientUnits="userSpaceOnUse"><stop offset="0.43" stop-color="#8ba983"/><stop offset="0.8" stop-color="#6a7c60"/><stop offset="1" stop-color="#8ba983"/></linearGradient><linearGradient id="linear-gradient-10" x1="232.19" y1="33.36" x2="234.22" y2="33.36" gradientTransform="matrix(0, -1, -1, 0, 163.57, 282.04)" xlink:href="#linear-gradient-2"/><linearGradient id="linear-gradient-11" x1="232.52" y1="32.01" x2="234.44" y2="32.4" gradientTransform="matrix(-1, -0.06, -0.06, 1, 365.11, 30.65)" xlink:href="#linear-gradient-3"/><linearGradient id="linear-gradient-12" x1="232.53" y1="34.65" x2="234.44" y2="35.03" gradientTransform="matrix(-1, -0.06, -0.06, 1, 365.11, 30.65)" xlink:href="#linear-gradient-3"/><linearGradient id="linear-gradient-13" x1="243.01" y1="77.49" x2="244.89" y2="77.87" gradientTransform="matrix(-0.99, -0.12, -0.12, 0.99, 381.5, 30.72)" gradientUnits="userSpaceOnUse"><stop offset="0.43" stop-color="#a98a85"/><stop offset="0.8" stop-color="#7c6261"/><stop offset="1" stop-color="#a98a85"/></linearGradient><linearGradient id="linear-gradient-14" x1="242.9" y1="52.59" x2="244.93" y2="52.59" gradientTransform="matrix(0, -1, -1, 0, 185.58, 296.86)" xlink:href="#linear-gradient-2"/><linearGradient id="linear-gradient-15" x1="243.23" y1="51.23" x2="245.15" y2="51.62" gradientTransform="matrix(-0.99, -0.12, -0.12, 0.99, 381.5, 30.72)" xlink:href="#linear-gradient-3"/><linearGradient id="linear-gradient-16" x1="243.23" y1="53.87" x2="245.14" y2="54.26" gradientTransform="matrix(-0.99, -0.12, -0.12, 0.99, 381.5, 30.72)" xlink:href="#linear-gradient-3"/><linearGradient id="linear-gradient-17" x1="242.48" y1="838.73" x2="245.26" y2="839.3" gradientTransform="matrix(-0.93, -0.37, -0.37, 0.93, 632.3, -563.72)" gradientUnits="userSpaceOnUse"><stop offset="0.43" stop-color="#c7b299"/><stop offset="0.8" stop-color="#998675"/><stop offset="1" stop-color="#c7b299"/></linearGradient><linearGradient id="linear-gradient-18" x1="234.74" y1="815.79" x2="237.31" y2="815.79" gradientTransform="matrix(-0.93, -0.37, -0.37, 0.93, 632.3, -563.72)" gradientUnits="userSpaceOnUse"><stop offset="0" stop-color="#ccc"/><stop offset="0.46" stop-color="#bcbcbc"/><stop offset="0.81" stop-color="#999"/><stop offset="0.86" stop-color="#9c9c9c"/><stop offset="0.9" stop-color="#a6a6a6"/><stop offset="0.94" stop-color="#b7b7b7"/><stop offset="0.97" stop-color="#cfcfcf"/><stop offset="1" stop-color="#e6e6e6"/></linearGradient><linearGradient id="linear-gradient-19" x1="234.99" y1="814.51" x2="236.82" y2="814.88" gradientTransform="matrix(-0.93, -0.37, -0.37, 0.93, 632.3, -563.72)" gradientUnits="userSpaceOnUse"><stop offset="0.43" stop-color="#ccc"/><stop offset="0.66" stop-color="#9d9d9d"/><stop offset="0.73" stop-color="#a4a4a4"/><stop offset="0.83" stop-color="#b9b9b9"/><stop offset="0.96" stop-color="#dadada"/><stop offset="1" stop-color="#e6e6e6"/></linearGradient><linearGradient id="linear-gradient-20" x1="235.85" y1="816.95" x2="237.54" y2="817.3" gradientTransform="matrix(0.32, -0.95, -0.95, -0.32, 810.77, 592.36)" xlink:href="#linear-gradient-19"/></defs><g id="Layer_2" data-name="Layer 2"><g id="Layer_1-2" data-name="Layer 1"><polygon class="cls-1" points="337.2 137.64 336.5 301.82 345.2 306.25 345.9 137.64 337.2 137.64"/><polygon class="cls-2" points="345.9 137.64 345.2 306.25 353.9 301.9 354.59 133.3 345.9 137.64"/><polygon class="cls-1" points="213.64 197.83 212.95 362.03 221.66 366.43 222.35 197.83 213.64 197.83"/><polygon class="cls-2" points="222.35 197.85 221.66 366.43 230.36 362.09 231.05 193.51 222.35 197.85"/><polygon class="cls-1" points="8.22 92.47 7.52 256.65 16.23 261.09 16.91 92.47 8.22 92.47"/><polygon class="cls-2" points="16.91 92.48 16.23 261.09 24.92 256.75 25.61 88.13 16.91 92.48"/><polygon class="cls-3" points="16.73 138.1 213.48 236.63 213.63 203.63 16.91 106.64 16.73 138.1"/><polygon class="cls-2" points="51.3 149.26 167.12 207.36 167.12 188.02 51.3 129.92 51.3 149.26"/><polygon class="cls-4" points="345.86 146.95 345.73 179.2 231.05 236.1 231 204.39 345.86 146.95"/><polygon class="cls-2" points="0 103.82 233.7 219.99 378.07 147.8 144.37 30.94 0 103.82"/><polygon class="cls-2" points="0 103.82 378.07 147.8 378.07 136.58 0.06 93.11 0 103.82"/><polygon class="cls-3" points="0.06 93.11 233.75 209.11 378.07 136.58 144.37 19.73 0.06 93.11"/><polygon class="cls-5" points="166.36 52.85 227.53 83.44 227.53 39.93 166.36 9.34 166.36 52.85"/><polygon class="cls-6" points="143.77 71.39 131.34 73.81 140.02 59.53 143.77 71.39"/><path class="cls-7" d="M157.43,154.69c1.83-.41,27.91-12.77,31-12.51s6.06,1,7.39,1.79-.2.7-.43.62-6-2-7.23-1.82-31.22,13.61-31.22,13.61Z"/><path class="cls-7" d="M123.77,140.36c1.83-.41,36.41-11.53,39.48-11.27s6.06,1,7.39,1.79-.2.7-.42.62-6-2-7.23-1.82-39.73,12.37-39.73,12.37Z"/><path class="cls-7" d="M123.46,142a3.34,3.34,0,0,1,.93,2.67,3.06,3.06,0,0,0,1.37,2.32c1.3.78,4.68,2.45,5,2.56s3.85,1.52,4.39,1.68,2.06.73,3.1-.4.9-2,1.27-1.88.82.22,1.29.4,1,.51,1.37.71.11.89,1,2.8A5.84,5.84,0,0,0,146,155.7c.54.29,4.1,1.84,4.37,2s3.69,1.27,5,1.58a1.31,1.31,0,0,0,1.59-1.09c.29-1.81,1-1.65,1.23-1.78s.19-.78-.09-1.76c-1.5-.93-9.46-4.07-10.17-4.34s-2.95-.91-4.44-1.41c-1.32-.44-1.29-.37-2.36-.81h0a27.33,27.33,0,0,1-2.78-1.32c-1.48-.73-3.68-1.93-4.39-2.25s-8.64-3.78-10.18-4.11C123.38,141.07,123.2,141.62,123.46,142Zm19.72,7.87c.53-.24,1.22-.24,3.16.35s6.18,2.25,6.88,2.62,3.2,1.46,3.43,2a4.64,4.64,0,0,1-.25,2.73c-.32.78-.2,1.55-1.63,1.18a41.09,41.09,0,0,1-4.44-1.44c-1.35-.53-4.17-1.87-4.64-2.11a4.32,4.32,0,0,1-2.19-2.86C142.93,150.38,143.18,149.83,143.18,149.83Zm-18.09-8.07c.31-.36,2.8.6,3.52.83s4.95,2.07,6.85,3.08a7.94,7.94,0,0,1,3,2.22,3.41,3.41,0,0,1-.62,2.12,1.9,1.9,0,0,1-2.45.93c-.48-.15-3.32-1.16-4.66-1.74a49.11,49.11,0,0,1-4.39-2.23c-1.4-.8-1.19-1.43-1.4-2.43A4.87,4.87,0,0,1,125.09,141.76Z"/><path class="cls-7" d="M123,142.25a3.3,3.3,0,0,1,.93,2.67,3.06,3.06,0,0,0,1.37,2.32c1.3.77,4.68,2.44,4.95,2.55s3.85,1.52,4.39,1.68,2.07.73,3.11-.39.89-2,1.26-1.88.82.21,1.29.39,1,.51,1.37.71.11.89.95,2.8a5.83,5.83,0,0,0,2.89,2.88c.54.29,4.11,1.85,4.37,2s3.69,1.26,5,1.57a1.32,1.32,0,0,0,1.6-1.09c.29-1.8.94-1.65,1.22-1.77s.19-.79-.09-1.77c-1.49-.93-9.46-4.06-10.16-4.33s-3-.91-4.45-1.41c-1.32-.44-1.29-.38-2.36-.82h0a28.38,28.38,0,0,1-2.78-1.32c-1.48-.73-3.68-1.93-4.39-2.25s-8.64-3.78-10.18-4.1C123,141.35,122.78,141.9,123,142.25Zm19.72,7.87c.53-.24,1.23-.24,3.16.35s6.18,2.25,6.89,2.61,3.19,1.47,3.43,2a4.82,4.82,0,0,1-.25,2.73c-.33.77-.21,1.54-1.64,1.17a43.38,43.38,0,0,1-4.44-1.43c-1.35-.54-4.16-1.88-4.64-2.12a4.27,4.27,0,0,1-2.19-2.85C142.51,150.66,142.76,150.12,142.76,150.12ZM124.68,142c.3-.36,2.8.61,3.51.83S133.14,145,135,146a7.94,7.94,0,0,1,3,2.22,3.4,3.4,0,0,1-.62,2.12,1.88,1.88,0,0,1-2.45.93c-.47-.15-3.32-1.16-4.66-1.74a46.59,46.59,0,0,1-4.39-2.23c-1.4-.79-1.18-1.43-1.39-2.42A4.74,4.74,0,0,1,124.68,142Z"/><path class="cls-7" d="M123.21,142.08a3.28,3.28,0,0,1,.94,2.66,3,3,0,0,0,1.36,2.33c1.3.77,4.69,2.44,5,2.55s3.84,1.53,4.38,1.68,2.07.73,3.11-.39.89-2,1.27-1.88.81.21,1.28.39a13.15,13.15,0,0,1,1.37.71c.37.21.12.89,1,2.8a5.76,5.76,0,0,0,2.89,2.88c.53.29,4.1,1.85,4.37,2s3.69,1.26,5,1.57a1.31,1.31,0,0,0,1.59-1.09c.29-1.8.94-1.65,1.23-1.77s.19-.79-.09-1.77c-1.5-.93-9.46-4.06-10.17-4.33s-3-.92-4.44-1.41c-1.33-.44-1.29-.38-2.36-.81h0a28.55,28.55,0,0,1-2.79-1.32c-1.47-.73-3.68-1.93-4.38-2.25s-8.55-3.69-10.09-4C123.23,141.27,123,141.73,123.21,142.08ZM142.93,150c.54-.24,1.23-.24,3.16.35s6.19,2.25,6.89,2.61,3.19,1.47,3.43,2.05a4.64,4.64,0,0,1-.25,2.73c-.33.77-.2,1.54-1.63,1.17a43.38,43.38,0,0,1-4.44-1.43c-1.35-.54-4.17-1.88-4.64-2.12a4.24,4.24,0,0,1-2.2-2.86C142.69,150.49,142.93,150,142.93,150Zm-18.08-8.08c.31-.35,2.8.61,3.51.83s4.95,2.08,6.86,3.08a8,8,0,0,1,3,2.22,3.38,3.38,0,0,1-.63,2.12,1.89,1.89,0,0,1-2.45.93c-.47-.15-3.31-1.16-4.66-1.74a47.7,47.7,0,0,1-4.38-2.23c-1.4-.79-1.19-1.42-1.4-2.42A4.82,4.82,0,0,1,124.85,141.87Z"/><polygon class="cls-7" points="124.74 141.41 127.22 141.86 123.77 140.36 123.35 140.65 124.74 141.41"/><polygon class="cls-7" points="157.85 154.71 156.19 153.92 157.76 156.65 158.25 156.31 157.85 154.71"/><polygon class="cls-7" points="235.02 171.39 189.05 164.09 174.01 153.08 238.27 138.78 235.02 171.39"/><path class="cls-7" d="M127.28,80.34l-17-3.31S91.57,56.23,92.55,53s19.28-7.86,19.28-7.86l24.85,2.73Z"/><polygon class="cls-7" points="100.42 80.67 73.32 72.22 103.63 58.53 100.42 80.67"/><path class="cls-7" d="M197.75,134.76,63.21,89.4s-3.91-2.6,0-5.84S169,61.34,169,61.34Z"/><polygon class="cls-7" points="229.75 132.52 202.79 132.52 230.54 118.64 229.75 132.52"/><path class="cls-8" d="M97.21,39c0,1.3,1.05,1.83,2.36,1.18l8.29-4a4.42,4.42,0,0,0,2.35-3.53h0c0-1.3-1-1.83-2.35-1.18l-8.29,4A4.43,4.43,0,0,0,97.21,39Z"/><rect class="cls-8" x="108.16" y="42.25" width="6.32" height="8.27"/><path class="cls-8" d="M109.08,49.41c-1.23.62-1.23,1.62,0,2.24a5.69,5.69,0,0,0,4.47,0c1.23-.62,1.23-1.62,0-2.24A5.6,5.6,0,0,0,109.08,49.41Z"/><path class="cls-8" d="M109.08,41.14c-1.23.61-1.23,1.62,0,2.23a5.6,5.6,0,0,0,4.47,0c1.23-.61,1.23-1.62,0-2.23A5.69,5.69,0,0,0,109.08,41.14Z"/><rect class="cls-9" x="108.68" y="27.05" width="5.27" height="15.02"/><path class="cls-9" d="M109.45,41.14c-1,.51-1,1.34,0,1.86a4.65,4.65,0,0,0,3.73,0c1-.52,1-1.35,0-1.86A4.65,4.65,0,0,0,109.45,41.14Z"/><path class="cls-8" d="M109.45,26.12c-1,.51-1,1.35,0,1.86a4.65,4.65,0,0,0,3.73,0c1-.51,1-1.35,0-1.86A4.65,4.65,0,0,0,109.45,26.12Z"/><path class="cls-9" d="M110.05,26.42c-.7.35-.7.91,0,1.26a3.18,3.18,0,0,0,2.53,0c.7-.35.7-.91,0-1.26A3.18,3.18,0,0,0,110.05,26.42Z"/><polygon class="cls-8" points="89.74 73.17 104.52 80.56 123.95 70.85 109.17 63.46 89.74 73.17"/><polygon class="cls-8" points="89.74 73.17 123.95 70.85 123.95 66.92 89.74 69.24 89.74 73.17"/><polygon class="cls-9" points="89.74 69.24 104.52 76.63 123.95 66.92 109.17 59.53 89.74 69.24"/><polygon class="cls-8" points="95.01 70.89 101.01 73.89 108.9 69.94 102.89 66.94 95.01 70.89"/><polygon class="cls-8" points="95.01 70.89 108.9 69.94 108.9 68.35 95.01 69.29 95.01 70.89"/><polygon class="cls-9" points="95.01 69.29 101.01 72.29 108.9 68.35 102.89 65.35 95.01 69.29"/><path class="cls-9" d="M97.21,38.67a4,4,0,0,1,2-3h0c1-.53,1.79-.1,1.79,1V66.26a3.65,3.65,0,0,1-1.79,2.9h0c-1,.53-2,.16-2-.91Z"/><polygon class="cls-8" points="96.69 69.39 100.99 71.54 105.28 69.39 100.99 67.24 96.69 69.39"/><rect class="cls-8" x="96.69" y="66.49" width="8.59" height="2.91"/><polygon class="cls-9" points="96.69 66.49 100.99 68.63 105.28 66.49 100.99 64.34 96.69 66.49"/><polygon class="cls-9" points="97.21 66.22 101.28 68.35 103.63 36.53 100.42 35.58 97.21 66.22"/><path class="cls-8" d="M101.3,39.61c0,1.3,1.06,1.83,2.36,1.18l8.3-4a4.46,4.46,0,0,0,2.35-3.54h0c0-1.3-1.06-1.82-2.35-1.17l-8.3,4a4.45,4.45,0,0,0-2.36,3.54Z"/><path class="cls-8" d="M101.28,39.63a3.68,3.68,0,0,1,1.79-2.9h0c1-.53,1.78-.1,1.78,1V67.29a3.69,3.69,0,0,1-1.78,2.9h0c-1,.53-1.79.1-1.79-1Z"/><path class="cls-6" d="M102.34,39.42c0,.55.45.78,1,.5a1.87,1.87,0,0,0,1-1.5c0-.55-.44-.78-1-.5A1.9,1.9,0,0,0,102.34,39.42Z"/><polygon class="cls-9" points="103.66 36.07 113.01 31.77 108.34 31.22 100.42 35.02 103.66 36.07"/><rect class="cls-10" x="107.61" y="63.47" width="7.52" height="1.88"/><path class="cls-10" d="M108.71,64c-1.47.73-1.47,1.92,0,2.65a6.63,6.63,0,0,0,5.31,0c1.48-.73,1.48-1.92,0-2.65A6.63,6.63,0,0,0,108.71,64Z"/><path class="cls-5" d="M108.71,62.15c-1.47.73-1.47,1.92,0,2.66a6.71,6.71,0,0,0,5.31,0c1.48-.74,1.48-1.93,0-2.66A6.63,6.63,0,0,0,108.71,62.15Z"/><path class="cls-8" d="M109,62.31c-1.29.64-1.29,1.69,0,2.33a5.86,5.86,0,0,0,4.68,0c1.29-.64,1.29-1.69,0-2.33A5.86,5.86,0,0,0,109,62.31Z"/><path class="cls-6" d="M111.85,34.48c0,.46.38.65.85.42a1.6,1.6,0,0,0,.83-1.26c0-.47-.37-.66-.83-.43A1.6,1.6,0,0,0,111.85,34.48Z"/><polygon class="cls-11" points="162.11 63.11 120.99 59.57 121 56.1 162.11 59.6 162.11 63.11"/><path class="cls-11" d="M143.77,71.39a3.41,3.41,0,0,0,2.66,0l15.14-7.57c.73-.37.73-1,0-1.33L139.34,51.37a3.41,3.41,0,0,0-2.66,0l-15.14,7.57c-.73.37-.73,1,0,1.33Z"/><path class="cls-12" d="M143.77,67.84a3.33,3.33,0,0,0,2.66,0l15.14-7.57c.73-.36.73-1,0-1.33L139.34,47.83a3.33,3.33,0,0,0-2.66,0L121.54,55.4c-.73.37-.73,1,0,1.33Z"/><rect class="cls-13" x="140.26" y="35.52" width="2.13" height="21.16"/><path class="cls-13" d="M140.25,35.54c0,.41.48.73,1.07.73s1.07-.32,1.07-.73-.48-.73-1.07-.73S140.25,35.14,140.25,35.54Z"/><path class="cls-13" d="M140.26,56.68c0,.41.48.73,1.06.73s1.07-.32,1.07-.73-.48-.73-1.07-.73S140.26,56.28,140.26,56.68Z"/><path class="cls-14" d="M119.1,24.36a22.45,22.45,0,1,0,44.9,0v0a22.23,22.23,0,0,0-2.43-10.13c-.27-.54-.57-1.07-.89-1.58l-.37-.59c-.13-.2-.28-.41-.42-.61a19.65,19.65,0,0,0-1.66-2.08,22.42,22.42,0,0,0-32.18-1.2c-.26.24-.52.49-.76.76s-.31.32-.46.49a22.32,22.32,0,0,0-5.46,11.51A23.19,23.19,0,0,0,119.1,24.36Z"/><rect class="cls-13" x="140.02" y="0.71" width="2.13" height="6.99"/><path class="cls-13" d="M140,.73c0,.4.48.73,1.07.73s1.06-.33,1.06-.73S141.67,0,141.09,0,140,.33,140,.73Z"/><path class="cls-13" d="M140,7.7c0,.41.48.73,1.07.73s1.06-.32,1.06-.73S141.68,7,141.09,7,140,7.3,140,7.7Z"/><path class="cls-15" d="M148.51,31.86c.15.32.09.23.37.48s.42.16.53.38a2.79,2.79,0,0,0,.26.52,1.55,1.55,0,0,0,.85.32c.38,0-.05-.17.56.17s.67.52.67.52.49.38.61.46l0,0s-.24-.07.11.06.38.05,1,.08l.65,0c-.1.07-.22.14-.33.23s-.26,0-.08.21,0,.24.66.19a5.07,5.07,0,0,0,1.19-.22s.2.06.2.17.4,0,.4.09,0,0,0,0,0,.06,0,.12c-.06.36.47.28.61.42s.06,0,.13.14-.34.22-.41.4.06.19.34.34a1.14,1.14,0,0,1,.35.26s.06.06,0,.25a2.74,2.74,0,0,1-.57.66c-.14.13-.69.1-.14.27a3.71,3.71,0,0,0,1.54-.12s.21.08.21-.19v-.55s.68-.92.74-1,.41-.17.19-.46a2.22,2.22,0,0,0-.57-.65c-.2-.11-.2-.19-.34-.33a4.11,4.11,0,0,1-.34-.39c0-.14-.06-.28-.08-.42,0,0,0,.06.24-.41s.35-.89.29-1a1.4,1.4,0,0,1-.1-.5l.17-.41c-.06-.17-.1-.32-.16-.49,0,0,0-.14.42-.38a1.54,1.54,0,0,0,.57-.58s.19,0,.59-.53.8-1.09.65-1.29-.37-.44-.37-.44-.46-.27-.47-.38.46-.6.46-.6c.71-.55,1-.67,1.06-.93s0-.28.69-.57.81-.74,1.14-.88a6.14,6.14,0,0,0,1-.58h0a22.23,22.23,0,0,0-2.43-10.13l-.27.13c-.26.13-.32.23-.52.25s0-.08-.26-.17-.32-.19-.29-.42,0-.57-.14-.52-.51-.21-.51-.21-.41.07-.34.41.38.3.35.49a1.2,1.2,0,0,1-.35.59,3.23,3.23,0,0,0-.34.35,1.17,1.17,0,0,1-.43.19c-.16,0,.08-.22-.3-.21s-.75-.25-.44.16a1.73,1.73,0,0,1,.4.78c.08.3.42.48.24.73s-1,.59-.56.77.82.09,1,.22a1.46,1.46,0,0,1,.37.64.91.91,0,0,1,0,.71c-.12.37-.79.93-.87,1.08s-.38.45-.41.36.41-.35.11-.57-.68,0-.44-.37a2.48,2.48,0,0,0,.18-1.13s-.26-.47-.33-.55-.2-.21-.6,0a1.56,1.56,0,0,0-.66.7c-.08.13-.19.09-.19.33l0,.5-.23.09s0-.07-.27-.09l-.3,0s-.18-.15-.2,0-.1.4-.12.54.21.08-.17.31a2,2,0,0,0-.6.46c-.09.12-.24.12-.08.25l.18.14a1.86,1.86,0,0,0-.23.26c0,.23.74.27.74.27a.5.5,0,0,1,.23.18c.07.12.17.1.19.27s.4.21,0,.44a1.88,1.88,0,0,1-.71.27l1,0c.63-.06.69,0,1.12-.06s.3-.19.43,0,.05.33.22.45.62,0,.69.08l.06.09a.47.47,0,0,1,.47.1c.25.19.36.16.38.33s.1.21.28.33.12,0,.2.11.11,0-.06.34-.4.44-.48.6a.27.27,0,0,0,.09.32s-.07.27-.52.4a5.57,5.57,0,0,0-1.12.32,5.77,5.77,0,0,1-.61.34c-.16.07-.66.36-.26.33a11.91,11.91,0,0,0,1.32-.23,8.09,8.09,0,0,0,1-.28.17.17,0,0,1,.19.14c0,.18-.32.31-.32.31s0,.06-.2.23a3.69,3.69,0,0,1-1,.41c-.17.08-.8.27-.8.27a2.2,2.2,0,0,0-.75.22l-.46.2a1.76,1.76,0,0,1-.92.6c-.64.19-.88.2-.94.32s.06.05-.29.28-.6.1-.6.4.23.44,0,.61a1.75,1.75,0,0,1-.67.24s.06-.05-.54.07a4,4,0,0,0-.91.18c-.19.09-.87.25-1,.3s-.49.08-.56.18S148.36,31.54,148.51,31.86Z"/><path class="cls-15" d="M158.83,14.23c0-.13-.05-.26-.07-.4a1.12,1.12,0,0,0-.43-.14c-.14,0-.08-.11-.33-.16a1,1,0,0,0-.71.13c-.29.15-.69.36-.73.55a.93.93,0,0,1-.38.52,1.71,1.71,0,0,0-.55.66c0,.2-.76.58-.83.7a.3.3,0,0,0,0,.29c0,.17.49-.11.1.32s-.34.19-.4.42a1.33,1.33,0,0,1-.3.46.4.4,0,0,0,0,.26c.06.12.11.14.34.08s.59-.54.59-.54a.56.56,0,0,1,.12.42,5.38,5.38,0,0,1-.25.52.91.91,0,0,1,.37-.1,1.19,1.19,0,0,0,.68-.34c.25-.21,1-.51.91-.78l-.05-.26s-.17-.33-.11-.46.09-.27.3-.38.31-.32.47-.45,1-.88,1-.88Z"/><path class="cls-15" d="M153.44,10.9s0,.21.42.4a6.21,6.21,0,0,0,1,.32l-.51.51-.3.33.78.39s-.35,0-.37.11-.48.18-.72.28-.93.28-1,.62-.48.49-.53.77a.66.66,0,0,0,.12.52c.06.13.29.21.11.49s-.44.37-.47.48a.7.7,0,0,0,.1.49c.11.18.34.2.4.32s0,.16.12.55.15.48-.14.82a1.81,1.81,0,0,0-.55.75,3.49,3.49,0,0,1-.57.78c-.09.15-.25-.1-.34.09s.2,0-.08.18-.44,0-.54-.22-.27-.57-.32-.7.08-.25-.11-.42a1,1,0,0,0-.43-.25c-.14-.05-.7-.18-.7-.19l-.55-.27s.19-.12-.18-.12a4.33,4.33,0,0,1-1-.06,1.2,1.2,0,0,1-.31-.24s.09,0,.5-.17.66-.52.44-.6a1,1,0,0,0-.53-.1c-.13,0-.39.2-.53.24s-.56-.21-.21-.39.48-.16.53-.33-.08-.46-.21-.46l-.39.06c-.12,0-.16-.19-.16-.19l.13-.18-.21-.12a2.23,2.23,0,0,0,.09-.5,1.34,1.34,0,0,0-.07-.43c.32-.25.45,0,.32-.25a.61.61,0,0,0-.4-.28.56.56,0,0,0,.2-.25c0-.13.24-.11,0-.47s-.39-.64-.39-.64l0-.6A31.81,31.81,0,0,0,153.44,10.9Z"/><path class="cls-15" d="M154.71,10.55s.5,0,.54.16.14.49.17.58.46.3.46.3.16.08.19.18-.11.22.1.35.15-.09.21.14-.13.47-.06.55.15.2.45.16-.2.11.68-.3a3.42,3.42,0,0,0,1.09-.67s.3,0,.29-.2-.57-.28.45-.31a2.84,2.84,0,0,0,.61-.07,19.65,19.65,0,0,0-1.66-2.08,3.21,3.21,0,0,1-.39.24,2,2,0,0,1-.76.08c-.13,0-.12-.23-.66.19a2.9,2.9,0,0,1-1.09.56Z"/><path class="cls-15" d="M137.61,29.68c.38,0,.76-.09,1.13-.15a6.25,6.25,0,0,0,.94,0c.49,0,1.74-.05,2,0a4,4,0,0,0,.63.07,1,1,0,0,0,.76-.57c.2-.39,1.47-1.17,1.3-1.2a6.48,6.48,0,0,1-.83-.39c-.37-.17-1-.37-1.13-.81s.35-.75-.19-1-1.15-.45-1.28-.36-.38,0-.92,0-1.08-.22-1.39-.1a10.24,10.24,0,0,1-1.31.34s0,.1-.46.06-1-.22-1.38-.26-.66-.21-.93-.24a6.4,6.4,0,0,0-1-.15c-.24,0-.16.13-.34.29s-.25.32-.46.4a2.62,2.62,0,0,0-.74.32c-.27.2-.08.46-.8.57s-1.12-.11-1.32,0a1.14,1.14,0,0,1-.68.23,3.37,3.37,0,0,1-.93-.29c-.2-.11-.06-.24-.2-.11s0,.6.37.84a1.55,1.55,0,0,1,.57.52c.16.19.37.3.38.51s.17.19,0,.52.05.3-.25.62-.82.26-.48.66a3,3,0,0,0,.56.6c.29.23.59.18.71.49a.3.3,0,0,1-.14.41s-.48,0-.16.3.47.31.59.49,0,.18.23.37.23.38.39.49a1.38,1.38,0,0,0,.57.39c.57.28.18.22.87.38a3.78,3.78,0,0,0,.69.16c.39.05.12.37.68-.13a10,10,0,0,0,.94-.83c.26-.32.62-.73.82-.93a8.8,8.8,0,0,0,.78-.72,8.08,8.08,0,0,0,.81-.88C137.06,30.45,137.61,29.68,137.61,29.68Z"/><path class="cls-15" d="M119.37,20.9l.86,0,1,.39c.21.08.24.22.51.41s.12.37.27.8-.2.19-.57.48.39.49.5.43.38.06,1.06.08.38-.07.77-.33.58.11,1,.11.22-.05.29-.15.26-.4.26-.4a17,17,0,0,1,1.8,0c.81.09.35-.06,1.4,0s.35.18.6.16.14.63-.06.55a2.18,2.18,0,0,0-1.22.5c-.11.21-.24.45-1,.34s-.18.38.94,1.1.76.56,1.08.67.41.32,1,.24.73-.35,1.47-.37.43-.15.69-.46.28-.23.87-.25.48-.18.58-.43-.09-.34,0-.62.3.07.51.12.25.25,1.67.18.28-.22.57-.22.27.15.61.15a1.82,1.82,0,0,0,1-.17c.44-.23.24-.1.68-.13s.42.2,1.38.44.4.35.8.45.47.32,1.18.26a2.52,2.52,0,0,0,1.46-.39c.36-.25,0,0-.06-.27s-1-.23-1.1-.35-.47,0-.47,0-.46-.27-.27-.45.67-.53.64-.63-.22-.21-.55-.34-.39-.1-.55-.28a6.67,6.67,0,0,0-.75-.51c-.12-.12-.27-.1-.38-.28a.69.69,0,0,0-.28-.3.24.24,0,0,0-.24,0h-.34a.27.27,0,0,0,.21-.28c0-.2,0-.44.28-.54s.53-.2,1.29-.42.4,0,.5-.28,0-.37,0-.37-.32-.27-.64-.51a1.76,1.76,0,0,1-.54-.5c-.08-.1-.47-.39-.53-.54s-.37-.38-.37-.69-.19-.37-.44-.62-.41-.09-1-.17a2.28,2.28,0,0,0-1.11.27,3,3,0,0,1-.72,0c-.26,0-.58.09-.8.07s-.38.27-.1.66,0,0,.18-.09.77.33.77.33a3.65,3.65,0,0,1-.68.49c-.16,0-.38-.17-.47-.44s-.41-.32-.51-.52a.63.63,0,0,1,0-.64c.1-.29-.25,0-.37.1a.46.46,0,0,1-.29,0,4.76,4.76,0,0,1-.56-.57c-.26-.29-.35-.29-.35-.29s-.57-.17-.91-.3-.16,0-.08-.24.35-.22.35-.33-.43.12-.84.17-.53.18-.6,0-.19-.18-.22-.31.35-.32.44-.5,0-.42,0-.75a1.57,1.57,0,0,0-.08-.47,1.47,1.47,0,0,0-.4.14,1.56,1.56,0,0,0-.3.57c-.07.22-.28,1.4-.28,1.4a5.76,5.76,0,0,0-.25-.8.67.67,0,0,1,0-.65c0-.09.13-.42.19-.61s-.12-.13-.22-.22.06-.34.06-.34l.1-.17c.09-.17-.64-.35-.71-.47s-.22-.27-.22-.27a.78.78,0,0,0,.33-.54c0-.3-.18-.32-.25-.43a6.41,6.41,0,0,0-.58-.48,2.29,2.29,0,0,1-.55-.79,5.51,5.51,0,0,0-.13-.83c-.11-.42-.65-.11-.66-.11a5.08,5.08,0,0,1-.43-.38h-.33c-.26.24-.52.49-.76.76.06.4.13.79.21,1.19l-.67-.7A22.32,22.32,0,0,0,119.37,20.9Zm17.9-1.7a1.09,1.09,0,0,1,.62-.35c.37-.14.13.22.3.32s.27.92.38,1.27-.13.5.09.8a.35.35,0,0,0,.16.13,6.24,6.24,0,0,1-.68-.08c-.76-.12-1.08-.57-1-.68s0-.25-.16-.64S137,19.46,137.27,19.2Z"/><path class="cls-15" d="M133.16,14.77s.34-.06.32-.34a2.61,2.61,0,0,0-.25-.9,2.83,2.83,0,0,0-.38-.74c-.17-.21-.08-.31-.38-.61s-.27-.61-.51-.64-.5,0-.48.19-.14.1.42.76a3.71,3.71,0,0,1,.9,1.38c-.05.13-.17.4-.21.49S133.16,14.78,133.16,14.77Z"/><path class="cls-13" d="M141.32,50.16c4.15,0,7.46-2.52,9.68-6.63,1.54-2.84,2.9-9.55,2.6-14.79-.54-9.15-4.44-16.65-11.68-21.45-.46-.3-.29-1,.23-.83,8.1,3.24,14.18,11.65,14.81,22.31a24.54,24.54,0,0,1-4.32,15.73c-2.49,3.43-6.82,7-11.32,6.52A.43.43,0,0,1,141.32,50.16Z"/><path class="cls-16" d="M121.7,57.5c-3.4,1.69-3.4,4.45,0,6.14a15.47,15.47,0,0,0,12.3,0c3.39-1.69,3.39-4.45,0-6.14A15.47,15.47,0,0,0,121.7,57.5Z"/><path class="cls-17" d="M122.61,58.56c-2.89,1.45-2.89,3.79,0,5.24a13.17,13.17,0,0,0,10.48,0c2.89-1.45,2.89-3.79,0-5.24A13.17,13.17,0,0,0,122.61,58.56Z"/><path class="cls-18" d="M123.41,49.59c0,.14.21.19.37.17l1.3-.19c.16,0,.36-.14.34-.27l-.2-1.32c0-.13-.25-.24-.41-.22l-1.3.19c-.16,0-.32.19-.3.33Z"/><path class="cls-19" d="M127.11,74.29a20.26,20.26,0,0,0,1.48,3.47A15.77,15.77,0,0,0,129,74c-.11-.88-.44-1-1.15-.93S127,73.4,127.11,74.29Z"/><path class="cls-18" d="M125.77,51.72l3.31,22.34c0,.29-.05.54-.22.57s-.34-.19-.38-.49l-3.31-22.33Z"/><path class="cls-18" d="M125.17,51.81l3.31,22.33a.54.54,0,0,1-.32.6.52.52,0,0,1-.48-.47l-3.31-22.34Z"/><path class="cls-18" d="M124.37,51.93l3.31,22.34c0,.29-.05.54-.23.57s-.33-.19-.38-.48L123.77,52Z"/><rect class="cls-20" x="123.56" y="49.25" width="2.03" height="2.64" transform="translate(-6.06 18.78) rotate(-8.42)"/><path class="cls-21" d="M128.49,77.06a.47.47,0,0,0,.26-.11c-.09.48-.16.81-.16.81s-.16-.3-.37-.73A.49.49,0,0,0,128.49,77.06Z"/><polygon class="cls-22" points="123.41 49.61 125.42 49.31 125.39 49.11 123.38 49.41 123.41 49.61"/><polygon class="cls-23" points="123.8 52.22 125.81 51.92 125.77 51.72 123.77 52.02 123.8 52.22"/><path class="cls-24" d="M120.42,50c0,.13.22.17.39.13l1.26-.33c.16,0,.35-.17.31-.31l-.33-1.28c0-.14-.27-.22-.43-.18l-1.27.33c-.16,0-.3.22-.26.35Z"/><path class="cls-25" d="M126.68,74.14a20.11,20.11,0,0,0,1.84,3.31,16.11,16.11,0,0,0,0-3.8c-.2-.86-.55-1-1.24-.79S126.5,73.28,126.68,74.14Z"/><path class="cls-26" d="M123,51.85l5.63,21.86c.07.29,0,.55-.16.6s-.35-.16-.43-.45L122.4,52Z"/><path class="cls-9" d="M122.4,52,128,73.86a.5.5,0,0,1-.26.62c-.17,0-.45-.13-.52-.41L121.62,52.2Z"/><path class="cls-27" d="M121.62,52.2l5.63,21.87c.07.28,0,.55-.17.59s-.35-.16-.42-.44L121,52.35Z"/><rect class="cls-28" x="120.67" y="49.5" width="2.03" height="2.64" transform="translate(-8.82 31.92) rotate(-14.43)"/><path class="cls-21" d="M128.35,76.76a.42.42,0,0,0,.24-.14c0,.49-.07.83-.07.83l-.44-.69A.42.42,0,0,0,128.35,76.76Z"/><rect class="cls-29" x="120.36" y="49.54" width="2.03" height="0.2" transform="translate(-8.55 31.85) rotate(-14.45)"/><rect class="cls-30" x="121.02" y="52.1" width="2.03" height="0.2" transform="translate(-9.17 32.13) rotate(-14.46)"/><path class="cls-31" d="M129.3,47.64c0,.14.16.23.33.24l1.3.08c.17,0,.38-.05.39-.19l.09-1.33c0-.13-.19-.29-.36-.3l-1.3-.08c-.17,0-.36.12-.37.25Z"/><path class="cls-32" d="M127.72,72.56a20.25,20.25,0,0,0,.72,3.7,16.31,16.31,0,0,0,1.19-3.6c.07-.88-.22-1.1-.94-1.14S127.82,71.68,127.72,72.56Z"/><path class="cls-33" d="M131.16,50.22,129.7,72.75c0,.29-.16.52-.34.51s-.29-.26-.27-.55l1.47-22.53Z"/><path class="cls-34" d="M130.56,50.18l-1.47,22.53c0,.29-.26.52-.44.51a.53.53,0,0,1-.37-.56l1.47-22.54Z"/><path class="cls-35" d="M129.75,50.12l-1.47,22.54c0,.29-.16.52-.34.51s-.29-.26-.27-.56l1.47-22.53Z"/><rect class="cls-36" x="128.92" y="47.82" width="2.64" height="2.03" transform="matrix(0.06, -1, 1, 0.06, 73.08, 175.64)"/><path class="cls-21" d="M128.49,75.56a.42.42,0,0,0,.27-.06c-.18.46-.32.76-.32.76s-.09-.32-.21-.79A.48.48,0,0,0,128.49,75.56Z"/><polygon class="cls-37" points="129.3 47.66 131.32 47.79 131.34 47.58 129.31 47.45 129.3 47.66"/><polygon class="cls-38" points="129.13 50.29 131.15 50.42 131.16 50.22 129.14 50.09 129.13 50.29"/><path class="cls-18" d="M132.11,51.71c0,.14.15.24.32.26l1.3.16c.16,0,.38,0,.4-.17l.16-1.32c0-.14-.17-.3-.34-.32l-1.3-.16c-.16,0-.36.1-.37.23Z"/><path class="cls-39" d="M129.09,76.49a20.54,20.54,0,0,0,.5,3.75,16.35,16.35,0,0,0,1.4-3.53c.13-.87-.15-1.11-.87-1.19S129.24,75.62,129.09,76.49Z"/><path class="cls-40" d="M133.83,54.39,131.06,76.8c0,.29-.2.52-.37.49s-.27-.27-.24-.56l2.77-22.41Z"/><path class="cls-41" d="M133.22,54.32l-2.77,22.41a.42.42,0,1,1-.8-.1l2.77-22.41Z"/><path class="cls-42" d="M132.42,54.22l-2.77,22.41c0,.29-.2.51-.37.49s-.28-.27-.24-.57l2.77-22.41Z"/><rect class="cls-43" x="131.66" y="51.95" width="2.64" height="2.03" transform="translate(64.09 178.43) rotate(-82.94)"/><path class="cls-21" d="M129.69,79.54a.5.5,0,0,0,.27,0c-.21.44-.37.74-.37.74s-.07-.33-.16-.81A.47.47,0,0,0,129.69,79.54Z"/><polygon class="cls-44" points="132.11 51.73 134.13 51.98 134.15 51.77 132.14 51.53 132.11 51.73"/><polygon class="cls-45" points="131.79 54.35 133.8 54.59 133.83 54.39 131.81 54.15 131.79 54.35"/><path class="cls-46" d="M120.48,61.18c0,1,.73,1.9,2.17,2.62a11.85,11.85,0,0,0,5,1.08,12.14,12.14,0,0,0,5.44-1.08c1.45-.72,2.17-1.67,2.17-2.62l1.24-.62-2.25,16.85-13.46.13-1.68-17Z"/><path class="cls-46" d="M122.81,74.8c-2.63,1.32-2.63,3.45,0,4.77a12,12,0,0,0,9.52,0c2.63-1.32,2.63-3.45,0-4.77A12,12,0,0,0,122.81,74.8Z"/><polygon points="114.98 93.5 252.93 106.92 253.05 102.4 114.98 89.1 114.98 93.5"/><path class="cls-47" d="M115.41,92.64c-.79.4-.69,1.09.23,1.55l80.24,40.12a3.93,3.93,0,0,0,3.09.12l53.45-26.73c.8-.4.69-1.09-.23-1.55L172,66a4,4,0,0,0-3.1-.11Z"/><path class="cls-48" d="M115.51,88.06c-.79.4-.69,1.1.23,1.56L196,129.73a3.91,3.91,0,0,0,3.1.12l53.44-26.73c.8-.39.69-1.09-.23-1.54L172.05,61.46a3.88,3.88,0,0,0-3.09-.12Z"/><path class="cls-49" d="M229.91,104.45c-.4.2-.39.53,0,.73l1.28.64a1.85,1.85,0,0,0,1.44,0l1.28-.64c.4-.2.4-.53,0-.73l-1.28-.64a1.8,1.8,0,0,0-1.44,0Z"/><path class="cls-49" d="M225,102c-.41.2-.41.52,0,.72l1.28.64a1.83,1.83,0,0,0,1.45,0l1.27-.64c.4-.2.4-.52,0-.72l-1.27-.64a1.83,1.83,0,0,0-1.45,0Z"/><path class="cls-49" d="M221.61,100.3c-.4.2-.4.53,0,.73l1.28.63a1.83,1.83,0,0,0,1.45,0l1.27-.63c.4-.2.4-.53,0-.73l-1.28-.64a1.89,1.89,0,0,0-1.44,0Z"/><path class="cls-49" d="M218.32,98.65c-.4.21-.39.53,0,.73l1.28.64a1.8,1.8,0,0,0,1.44,0l1.28-.64c.39-.2.4-.52,0-.73L221,98a1.8,1.8,0,0,0-1.44,0Z"/><path class="cls-49" d="M215.11,97c-.4.21-.4.53,0,.73l1.27.64a1.83,1.83,0,0,0,1.45,0l1.27-.64c.4-.2.4-.52,0-.72l-1.27-.64a1.83,1.83,0,0,0-1.45,0Z"/><path class="cls-49" d="M211,95c-.4.21-.4.52,0,.73l1.28.63a1.79,1.79,0,0,0,1.45,0l1.27-.63c.4-.21.4-.52,0-.73l-1.28-.63a1.72,1.72,0,0,0-1.44,0Z"/><path class="cls-49" d="M207.67,93.33c-.4.2-.4.53,0,.72l1.28.64a1.8,1.8,0,0,0,1.44,0l1.28-.64c.4-.19.4-.52,0-.72l-1.28-.64a1.89,1.89,0,0,0-1.44,0Z"/><path class="cls-49" d="M204.38,91.69c-.4.2-.4.52,0,.72l1.28.64a1.8,1.8,0,0,0,1.44,0l1.28-.64c.4-.2.4-.52,0-.72l-1.28-.64a1.89,1.89,0,0,0-1.44,0Z"/><path class="cls-49" d="M201.17,90.08c-.4.2-.4.52,0,.72l1.27.64a1.76,1.76,0,0,0,1.44,0l1.29-.64c.39-.19.39-.52,0-.72l-1.29-.64a1.8,1.8,0,0,0-1.44,0Z"/><path class="cls-49" d="M197.25,88.12c-.4.2-.4.52,0,.72l1.28.65a1.92,1.92,0,0,0,1.45,0l1.28-.65c.39-.2.39-.52,0-.72L200,87.48a1.8,1.8,0,0,0-1.44,0Z"/><path class="cls-49" d="M193.91,86.44c-.41.22-.41.53,0,.73l1.27.64a1.83,1.83,0,0,0,1.45,0l1.28-.64c.39-.2.39-.51,0-.73l-1.27-.63a1.83,1.83,0,0,0-1.45,0Z"/><path class="cls-49" d="M190.62,84.81c-.4.2-.4.52,0,.72l1.27.64a1.83,1.83,0,0,0,1.45,0l1.27-.64c.4-.2.4-.52,0-.72l-1.27-.64a1.75,1.75,0,0,0-1.45,0Z"/><path class="cls-49" d="M187.4,83.2c-.4.2-.4.52,0,.72l1.28.64a1.8,1.8,0,0,0,1.44,0l1.28-.64c.4-.2.4-.52,0-.72l-1.28-.64a1.83,1.83,0,0,0-1.45,0Z"/><path class="cls-49" d="M183.61,81.3c-.4.2-.4.52,0,.72l1.27.64a1.83,1.83,0,0,0,1.45,0l1.28-.64c.39-.2.39-.52,0-.72l-1.28-.63a1.75,1.75,0,0,0-1.45,0Z"/><path class="cls-49" d="M180.32,79.65c-.4.21-.4.53,0,.73l1.28.64A1.8,1.8,0,0,0,183,81l1.28-.64c.39-.2.39-.52,0-.73L183,79a1.8,1.8,0,0,0-1.44,0Z"/><path class="cls-49" d="M177.1,78.05c-.4.2-.4.53,0,.72l1.28.64a1.8,1.8,0,0,0,1.44,0l1.28-.64c.4-.19.4-.52,0-.72l-1.28-.64a1.89,1.89,0,0,0-1.44,0Z"/><path class="cls-49" d="M169.27,77.58c-.41.2-.41.52,0,.72l1.27.64a1.83,1.83,0,0,0,1.45,0l1.27-.64c.4-.2.4-.52,0-.72L172,76.94a1.83,1.83,0,0,0-1.45,0Z"/><path class="cls-49" d="M165.93,75.91c-.4.2-.4.52,0,.72l1.28.64a1.83,1.83,0,0,0,1.45,0l1.27-.64c.4-.2.4-.52,0-.72l-1.27-.64a1.83,1.83,0,0,0-1.45,0Z"/><path class="cls-49" d="M162.63,74.26c-.4.2-.39.52,0,.72l1.28.64a1.8,1.8,0,0,0,1.44,0l1.28-.64c.4-.2.4-.52,0-.72l-1.28-.64a1.8,1.8,0,0,0-1.44,0Z"/><path class="cls-49" d="M159.42,72.65c-.4.2-.4.52,0,.73l1.28.64a1.89,1.89,0,0,0,1.44,0l1.28-.64c.39-.21.39-.53,0-.73L162.14,72a1.8,1.8,0,0,0-1.44,0Z"/><path class="cls-49" d="M165.56,79.43c-.4.2-.4.53,0,.72l1.27.64a1.83,1.83,0,0,0,1.45,0l1.27-.64c.4-.19.4-.52,0-.72l-1.27-.63a1.83,1.83,0,0,0-1.45,0Z"/><path class="cls-49" d="M162.22,77.76c-.4.2-.4.52,0,.73l1.28.64a1.89,1.89,0,0,0,1.44,0l1.28-.64c.39-.21.39-.53,0-.73l-1.28-.64a1.8,1.8,0,0,0-1.44,0Z"/><path class="cls-49" d="M158.93,76.11c-.4.2-.4.53,0,.73l1.27.63a1.87,1.87,0,0,0,1.45,0l1.28-.64c.4-.2.4-.53,0-.73l-1.28-.63a1.83,1.83,0,0,0-1.45,0Z"/><path class="cls-49" d="M155.71,74.51c-.4.2-.39.52,0,.72l1.28.64a1.8,1.8,0,0,0,1.44,0l1.28-.64c.4-.2.4-.52,0-.72l-1.28-.64a1.8,1.8,0,0,0-1.44,0Z"/><path class="cls-49" d="M162,81.2c-.39.21-.39.53,0,.73l1.29.63a1.8,1.8,0,0,0,1.44,0l1.27-.63c.4-.2.4-.52,0-.73l-1.27-.63a1.8,1.8,0,0,0-1.44,0Z"/><path class="cls-49" d="M158.67,79.54c-.4.19-.4.52,0,.72l1.27.64a1.83,1.83,0,0,0,1.45,0l1.27-.64c.4-.2.4-.53,0-.73l-1.27-.64a1.89,1.89,0,0,0-1.44,0Z"/><path class="cls-49" d="M155.37,77.89c-.39.2-.39.52,0,.72l1.28.64a1.83,1.83,0,0,0,1.45,0l1.27-.64c.4-.2.4-.52,0-.72l-1.27-.64a1.92,1.92,0,0,0-1.45,0Z"/><path class="cls-49" d="M155,81.39c-.4.2,0,.72.88,1.17L158.69,84a3.47,3.47,0,0,0,2.33.44l1.28-.64c.4-.2,0-.72-.89-1.17l-2.84-1.42a3.55,3.55,0,0,0-2.34-.44Z"/><path class="cls-49" d="M151.67,79.74c-.4.2-.4.53,0,.72l1.27.64a1.83,1.83,0,0,0,1.45,0l1.27-.64c.4-.19.4-.52,0-.72l-1.27-.63a1.83,1.83,0,0,0-1.45,0Z"/><path class="cls-49" d="M149.44,77.64c-.94.48-1.39,1-1,1.22l1.27.64a3.66,3.66,0,0,0,2.44-.5l3-1.5c.93-.47,1.38-1,1-1.22l-1.28-.64a3.78,3.78,0,0,0-2.43.5Z"/><path class="cls-49" d="M180.13,83c-.4.2-.41.52,0,.72l1.27.64a1.92,1.92,0,0,0,1.45,0l1.27-.64c.4-.2.4-.52,0-.73l-1.27-.63a1.83,1.83,0,0,0-1.45,0Z"/><path class="cls-49" d="M176.84,81.36c-.41.2-.41.52,0,.73l1.28.63a1.83,1.83,0,0,0,1.45,0l1.27-.63c.4-.21.4-.53,0-.73l-1.27-.64a1.83,1.83,0,0,0-1.45,0Z"/><path class="cls-49" d="M173.62,79.75c-.4.21-.4.53,0,.73l1.27.63a1.83,1.83,0,0,0,1.45,0l1.27-.63c.41-.21.41-.52,0-.73l-1.28-.64a1.83,1.83,0,0,0-1.45,0Z"/><path class="cls-49" d="M169.2,88.51c-.41.2-.41.52,0,.72l1.27.64a1.83,1.83,0,0,0,1.45,0l1.27-.64c.4-.2.4-.52,0-.72l-1.27-.64a1.83,1.83,0,0,0-1.45,0Z"/><path class="cls-49" d="M165.91,86.87c-.41.19-.41.52,0,.72l1.27.64a1.8,1.8,0,0,0,1.44,0l1.28-.64c.4-.2.4-.53,0-.72l-1.28-.64a1.72,1.72,0,0,0-1.44,0Z"/><path class="cls-49" d="M162.69,85.26c-.4.2-.4.52,0,.72l1.27.64a1.83,1.83,0,0,0,1.45,0l1.28-.64c.4-.2.4-.52,0-.72l-1.28-.64a1.8,1.8,0,0,0-1.44,0Z"/><path class="cls-49" d="M169.28,85.18c-.41.2-.41.52,0,.72l1.28.64a1.92,1.92,0,0,0,1.45,0l1.27-.64c.4-.2.4-.52,0-.72L172,84.54a1.83,1.83,0,0,0-1.45,0Z"/><path class="cls-50" d="M174.17,75.78c-.4.2-.4.51,0,.7h0a1.73,1.73,0,0,0,1.41,0h0c.4-.19.4-.5,0-.7h0a1.73,1.73,0,0,0-1.41,0Z"/><path class="cls-49" d="M170.83,74.11c-.39.19-.39.51,0,.71h0a1.73,1.73,0,0,0,1.41,0h0c.39-.2.39-.52,0-.71h0a1.73,1.73,0,0,0-1.41,0Z"/><path class="cls-49" d="M167.35,72.37c-.39.19-.39.51,0,.71h0a1.73,1.73,0,0,0,1.41,0h0c.39-.2.39-.52,0-.71h0a1.73,1.73,0,0,0-1.41,0Z"/><path class="cls-49" d="M223,104.44c-.4.2-.4.53,0,.73l1.28.64a1.76,1.76,0,0,0,1.44,0l1.28-.63c.4-.2.4-.53,0-.73l-1.28-.64a1.89,1.89,0,0,0-1.44,0Z"/><path class="cls-49" d="M219.44,102.67c-.41.19-.41.51,0,.72l1.27.64a1.92,1.92,0,0,0,1.45,0l1.27-.64c.4-.21.4-.53,0-.72l-1.27-.64a1.75,1.75,0,0,0-1.45,0Z"/><path class="cls-49" d="M215.87,100.88c-.4.21-.4.52,0,.72l1.28.64a1.83,1.83,0,0,0,1.45,0l1.27-.64c.4-.2.4-.51,0-.72l-1.27-.64a1.83,1.83,0,0,0-1.45,0Z"/><path class="cls-49" d="M212.31,99.1c-.4.2-.4.52,0,.72l1.27.64a1.92,1.92,0,0,0,1.45,0l1.28-.64c.4-.2.39-.52,0-.72L215,98.46a1.83,1.83,0,0,0-1.45,0Z"/><path class="cls-49" d="M208.75,97.31c-.4.21-.4.53,0,.73l1.27.64a1.83,1.83,0,0,0,1.45,0l1.27-.64c.4-.2.4-.52,0-.73l-1.27-.63a1.83,1.83,0,0,0-1.45,0Z"/><path class="cls-49" d="M205.19,95.54c-.41.19-.41.52,0,.72l1.27.64a1.89,1.89,0,0,0,1.44,0l1.28-.64c.4-.2.4-.53,0-.72l-1.28-.64a1.8,1.8,0,0,0-1.44,0Z"/><path class="cls-49" d="M201.62,93.75c-.4.2-.4.52,0,.73l1.27.63a1.83,1.83,0,0,0,1.45,0l1.27-.63c.41-.21.41-.53,0-.73l-1.28-.64a1.92,1.92,0,0,0-1.45,0Z"/><path class="cls-49" d="M198.06,92c-.41.2-.41.53,0,.72l1.27.64a1.8,1.8,0,0,0,1.44,0l1.28-.64c.4-.19.4-.52,0-.72l-1.28-.64a1.8,1.8,0,0,0-1.44,0Z"/><path class="cls-49" d="M194.49,90.19c-.4.2-.4.52,0,.72l1.28.64a1.8,1.8,0,0,0,1.44,0l1.28-.64c.4-.2.4-.52,0-.72l-1.28-.64a1.8,1.8,0,0,0-1.44,0Z"/><path class="cls-49" d="M190.93,88.41c-.4.2-.4.52,0,.72l1.28.64a1.8,1.8,0,0,0,1.44,0l1.27-.64c.4-.2.4-.52,0-.72l-1.27-.64a1.8,1.8,0,0,0-1.44,0Z"/><path class="cls-49" d="M187.37,86.63c-.41.2-.41.52,0,.72l1.27.63a1.72,1.72,0,0,0,1.44,0l1.28-.63c.4-.2.4-.53,0-.72L190.08,86a1.8,1.8,0,0,0-1.44,0Z"/><path class="cls-49" d="M217.51,105.41c-.4.2-.39.52,0,.72l1.28.63a1.72,1.72,0,0,0,1.44,0l1.28-.63c.4-.2.4-.52,0-.72l-1.28-.64a1.8,1.8,0,0,0-1.44,0Z"/><path class="cls-49" d="M214,103.62c-.4.2-.4.53,0,.73l1.27.64a1.92,1.92,0,0,0,1.45,0l1.27-.64c.4-.2.4-.53,0-.73l-1.27-.63a1.83,1.83,0,0,0-1.45,0Z"/><path class="cls-49" d="M210.38,101.84c-.4.2-.4.52,0,.72l1.28.64a1.79,1.79,0,0,0,1.45,0l1.27-.64c.4-.2.4-.52,0-.72l-1.27-.64a1.92,1.92,0,0,0-1.45,0Z"/><path class="cls-49" d="M206.81,100.06c-.39.2-.39.52,0,.73l1.28.63a1.83,1.83,0,0,0,1.45,0l1.28-.63c.4-.21.4-.53,0-.73l-1.28-.64a1.92,1.92,0,0,0-1.45,0Z"/><path class="cls-49" d="M203.25,98.28c-.39.2-.39.52,0,.72l1.28.64a1.87,1.87,0,0,0,1.45,0l1.27-.65c.4-.2.4-.52,0-.72L206,97.64a1.83,1.83,0,0,0-1.45,0Z"/><path class="cls-49" d="M199.69,96.49c-.4.2-.4.53,0,.73l1.27.64a1.8,1.8,0,0,0,1.44,0l1.28-.64c.39-.2.39-.53,0-.72l-1.28-.64a1.8,1.8,0,0,0-1.44,0Z"/><path class="cls-49" d="M196.13,94.72c-.4.19-.4.52,0,.72l1.28.64a1.8,1.8,0,0,0,1.44,0l1.27-.64c.4-.2.4-.53,0-.72l-1.27-.64a1.8,1.8,0,0,0-1.44,0Z"/><path class="cls-49" d="M192.57,92.93c-.41.21-.41.53,0,.73l1.27.63a1.83,1.83,0,0,0,1.45,0l1.27-.63c.4-.2.4-.52,0-.73l-1.27-.64a1.92,1.92,0,0,0-1.45,0Z"/><path class="cls-49" d="M189,91.15c-.4.2-.4.53,0,.73l1.27.63a1.85,1.85,0,0,0,1.46,0l1.27-.63c.39-.2.4-.53,0-.73l-1.27-.64a1.94,1.94,0,0,0-1.46,0Z"/><path class="cls-49" d="M185.44,89.37c-.4.2-.4.52,0,.72l1.27.64a1.83,1.83,0,0,0,1.45,0l1.27-.64c.4-.2.4-.52,0-.72l-1.27-.64a1.83,1.83,0,0,0-1.45,0Z"/><path class="cls-49" d="M181.87,87.59c-.39.2-.39.52,0,.72l1.28.64a1.8,1.8,0,0,0,1.44,0l1.28-.64c.4-.2.4-.52,0-.72L184.59,87a1.8,1.8,0,0,0-1.44,0Z"/><path class="cls-49" d="M208.85,105c-.4.2-.4.52,0,.72l1.28.64a1.83,1.83,0,0,0,1.45,0l1.27-.64c.4-.2.4-.52,0-.72l-1.27-.64a1.8,1.8,0,0,0-1.44,0Z"/><path class="cls-49" d="M205.29,103.18c-.4.21-.4.53,0,.73l1.28.64a1.8,1.8,0,0,0,1.44,0l1.28-.64c.4-.2.4-.52,0-.73l-1.28-.63a1.8,1.8,0,0,0-1.44,0Z"/><path class="cls-49" d="M201.73,101.41c-.4.19-.4.52,0,.72l1.27.64a1.83,1.83,0,0,0,1.45,0l1.28-.64c.4-.2.4-.53,0-.72l-1.28-.64a1.83,1.83,0,0,0-1.45,0Z"/><path class="cls-49" d="M198.16,99.62c-.39.2-.39.53,0,.73l1.28.63a1.83,1.83,0,0,0,1.45,0l1.27-.63c.4-.2.4-.53,0-.73L200.89,99a1.75,1.75,0,0,0-1.45,0Z"/><path class="cls-49" d="M194.6,97.84c-.4.2-.4.52,0,.73l1.27.63a1.83,1.83,0,0,0,1.45,0l1.28-.63c.4-.21.4-.53,0-.73l-1.28-.64a1.83,1.83,0,0,0-1.45,0Z"/><path class="cls-49" d="M191,96.06c-.4.2-.4.52,0,.72l1.27.64a1.76,1.76,0,0,0,1.44,0l1.29-.63c.39-.2.39-.52,0-.72l-1.29-.64a1.8,1.8,0,0,0-1.44,0Z"/><path class="cls-49" d="M187.47,94.27c-.4.21-.4.53,0,.73l1.28.63a1.72,1.72,0,0,0,1.44,0l1.28-.63c.4-.2.4-.52,0-.73l-1.27-.63a1.83,1.83,0,0,0-1.45,0Z"/><path class="cls-49" d="M183.91,92.5c-.4.19-.4.52,0,.71l1.27.65a1.87,1.87,0,0,0,1.45,0l1.28-.64c.39-.19.39-.52,0-.71l-1.28-.64a1.75,1.75,0,0,0-1.45,0Z"/><path class="cls-49" d="M176.78,88.93c-.4.2,0,.73.9,1.18l2.87,1.43a3.54,3.54,0,0,0,2.36.46l1.28-.64c.39-.2,0-.73-.91-1.18l-2.87-1.44a3.49,3.49,0,0,0-2.35-.45Z"/><path class="cls-49" d="M186.52,84.2l1.28.64c.4.2.4.53,0,.73l-1.28.63a1.83,1.83,0,0,1-1.45,0l-.94-.47L181.2,87.2a1.67,1.67,0,0,1-1.31.12c-.28-.14-.17-.43.26-.65l3.65-1.83.28-.13,1-.51A1.92,1.92,0,0,1,186.52,84.2Z"/><path class="cls-49" d="M203.7,105.71a2.08,2.08,0,0,1-1.64,0L183,96.14c-.48-.24-.52-.6-.08-.82l.9-.46a2.1,2.1,0,0,1,1.63,0l19.06,9.54c.47.23.51.6.08.81Z"/><path class="cls-49" d="M179,93.56c-.39.21-.39.53,0,.72l1.27.64a1.75,1.75,0,0,0,1.45,0l1.27-.64c.4-.19.4-.51,0-.72l-1.27-.63a1.83,1.83,0,0,0-1.45,0Z"/><path class="cls-49" d="M173.28,90.68c-.4.2-.13.65.59,1l2.3,1.16a2.87,2.87,0,0,0,2,.3l1.28-.64c.39-.21.14-.66-.59-1l-2.3-1.16a2.74,2.74,0,0,0-2-.29Z"/><path class="cls-49" d="M212.34,106.71c-.4.2,0,.7.82,1.13l2.7,1.36a3.31,3.31,0,0,0,2.26.4l1.28-.63c.4-.2,0-.71-.81-1.14l-2.71-1.35a3.27,3.27,0,0,0-2.26-.41Z"/><path class="cls-49" d="M221,107.15c-.4.2-.13.66.61,1l2.34,1.18a2.89,2.89,0,0,0,2.06.3l1.27-.63c.41-.2.14-.66-.6-1l-2.35-1.17a2.86,2.86,0,0,0-2.06-.31Z"/><path class="cls-49" d="M218.87,110c-.4.21-.4.53,0,.73l1.28.64a1.8,1.8,0,0,0,1.44,0l1.28-.64c.4-.2.4-.52,0-.73l-1.28-.63a1.8,1.8,0,0,0-1.44,0Z"/><path class="cls-49" d="M207.18,107.76a1.8,1.8,0,0,1-1.44,0l-1.28-.63c-.4-.2-.4-.53,0-.73l1.28-.63a1.8,1.8,0,0,1,1.44,0l1.28.63c.4.2.4.53,0,.73Z"/><path class="cls-49" d="M213,110.65a2.79,2.79,0,0,1-2-.29l-2.31-1.16c-.72-.36-1-.81-.58-1l1.27-.64a2.85,2.85,0,0,1,2,.29l2.31,1.16c.72.36,1,.81.59,1Z"/><path class="cls-49" d="M226.46,106.18c-.39.2-.39.53,0,.72l1.28.63a1.75,1.75,0,0,0,1.45,0l1.27-.63c.41-.2.41-.52,0-.72l-1.27-.64a1.83,1.83,0,0,0-1.45,0Z"/><path class="cls-51" d="M148.32,99.07c-.75.37-.75,1,0,1.35l26.06,13a3.42,3.42,0,0,0,2.7,0l12.22-6.1c.74-.38.74-1,0-1.36L163.23,93a3.45,3.45,0,0,0-2.71,0Z"/><polygon class="cls-52" points="234.01 101.66 237.48 103.4 241.1 101.58 237.64 99.84 234.01 101.66"/><polygon points="170.36 4.78 252.91 101.59 255.36 100.83 172.64 4.13 170.36 4.78"/><path class="cls-47" d="M172.2,58.31a3,3,0,0,0,1.66,2.27l80.25,40.12c.91.46,1.66.19,1.66-.6V46.65a3,3,0,0,0-1.66-2.26L173.86,4.26c-.92-.46-1.66-.2-1.66.6Z"/><path class="cls-53" d="M169.94,59a3,3,0,0,0,1.67,2.27l80.24,40.13c.91.45,1.66.19,1.66-.6V47.32a3,3,0,0,0-1.66-2.26L171.61,4.92c-.92-.45-1.67-.19-1.67.6Z"/><path class="cls-48" d="M169.94,59a3,3,0,0,0,1.67,2.27l80.24,40.13c.91.45,1.66.19,1.66-.6V47.32a3,3,0,0,0-1.66-2.26L171.61,4.92c-.92-.45-1.67-.19-1.67.6Z"/><path class="cls-6" d="M174.83,58.29a2.6,2.6,0,0,0,1.46,2l70.87,35.44c.8.4,1.46.17,1.46-.53V48a2.64,2.64,0,0,0-1.46-2L176.29,10.56c-.81-.4-1.46-.17-1.46.53Z"/><polygon class="cls-49" points="224.05 50.19 245.62 60.98 245.62 48.05 224.05 37.26 224.05 50.19"/><polygon class="cls-49" points="224.05 55.24 245.62 66.03 245.62 64.88 224.05 54.09 224.05 55.24"/><polygon class="cls-49" points="224.05 60.29 245.62 71.08 245.62 69.93 224.05 59.14 224.05 60.29"/><polygon class="cls-49" points="227.47 67.05 245.62 76.13 245.62 74.98 227.47 65.89 227.47 67.05"/><polygon class="cls-49" points="224.05 70.28 245.62 81.17 245.62 80.03 224.05 69.12 224.05 70.28"/><polygon class="cls-49" points="224.05 75.32 245.62 86.23 245.62 85.07 224.05 74.17 224.05 75.32"/><polygon class="cls-49" points="226.95 81.94 245.62 91.28 245.62 90.12 226.95 80.79 226.95 81.94"/><polygon class="cls-54" points="202.46 46.42 214.46 52.42 214.46 40.41 202.46 34.41 202.46 46.42"/><path class="cls-55" d="M178.76,44c0,3.78,3.07,8.38,6.84,10.27s6.85.35,6.85-3.43-3.06-8.37-6.85-10.26S178.76,40.25,178.76,44Z"/><polygon class="cls-55" points="196.46 37.83 202.46 46.42 202.46 34.41 196.46 25.83 196.46 37.83"/><polygon class="cls-56" points="202.46 34.41 214.46 40.41 208.46 31.83 196.46 25.83 202.46 34.41"/><polygon class="cls-57" points="69.76 124.53 109.49 144.39 158.04 120.12 118.31 100.25 69.76 124.53"/><polygon class="cls-58" points="112.73 105.59 111.86 105.59 95.56 124.44 94.79 128 112.73 105.59"/><polygon class="cls-59" points="134.25 118.55 112.25 123.15 125.06 129.55 134.25 118.55"/><path class="cls-59" d="M112.25,123.15c-1,.47,1.14,2.29,4.68,4.06s7.17,2.81,8.13,2.34-1.14-2.3-4.68-4.07S113.21,122.67,112.25,123.15Z"/><path class="cls-18" d="M111.89,106.58c-.09.11,0,.07.19.08l1.28.07c.16,0,.25,0,.33,0l.84-1c.09-.1,0-.1-.2-.11l-1.28-.07c-.16,0-.24,0-.32.08Z"/><path class="cls-60" d="M96.16,125.22A15.48,15.48,0,0,0,94.79,128,28.51,28.51,0,0,0,98,125.32c.58-.66.4-.83-.3-.87S96.76,124.57,96.16,125.22Z"/><path class="cls-18" d="M112.09,108.59,98,125.37a1,1,0,0,1-.64.38c-.17,0-.15-.19,0-.41l14.12-16.78Z"/><path class="cls-18" d="M111.49,108.56,97.37,125.34a1,1,0,0,1-.64.38c-.17,0-.15-.2,0-.41l14.11-16.78Z"/><path class="cls-61" d="M110.88,108.53,96.77,125.31a1,1,0,0,1-.64.38c-.17,0-.15-.2,0-.42l14.11-16.78Z"/><polygon class="cls-62" points="110.28 108.5 112.09 108.59 113.83 106.52 112.03 106.42 110.28 108.5"/><path class="cls-63" d="M95.25,127.48a1.08,1.08,0,0,0,.3,0l-.76.56.25-.59A.34.34,0,0,0,95.25,127.48Z"/><polygon class="cls-64" points="111.83 106.65 113.64 106.75 113.83 106.52 112.03 106.42 111.83 106.65"/><rect class="cls-65" x="111.18" y="107.64" height="1.81" transform="translate(-3.24 213.67) rotate(-86.89)"/><path class="cls-18" d="M103.35,126.84l-3.63.58,1.28,2,.84,1.3,1.14,1.76.83,1.3,1.26,1.95,3.63-.58-.91-1.42c2.79-.55,4.29-2.09,3.35-3.54s-4-2.27-6.86-1.9Zm1.49,2.32c2-.22,4,.34,4.57,1.31s-.34,2-2.18,2.39Z"/><polygon class="cls-54" points="125.59 108.68 140.61 116.18 141.93 115.52 126.92 108.01 125.59 108.68"/><polygon class="cls-66" points="229.49 132.65 256.49 119.15 256.49 76.12 229.49 89.62 229.49 132.65"/><path class="cls-66" d="M255.73,77.46c0,1.42,2.31,2.57,5.16,2.57s5.16-1.15,5.16-2.57-2.31-2.58-5.16-2.58S255.73,76,255.73,77.46Z"/><path class="cls-5" d="M255.59,79.09c0,1.43,2.31,2.58,5.16,2.58s5.16-1.15,5.16-2.58-2.31-2.57-5.16-2.57S255.59,77.67,255.59,79.09Z"/><polygon class="cls-5" points="239.05 92.22 265.34 78.2 256.76 77.46 230.77 90.32 239.05 92.22"/><polygon class="cls-5" points="230.77 131.28 239.05 132.65 239.05 91.82 230.77 90.32 230.77 131.28"/><polygon class="cls-66" points="239.05 133.98 266.05 120.48 266.05 77.46 239.05 90.95 239.05 133.98"/><polygon class="cls-5" points="243.36 102.61 262.74 92.92 262.74 87.04 243.36 96.74 243.36 102.61"/><polygon class="cls-5" points="243.36 107.43 253.55 102.33 253.55 99.33 243.36 104.42 243.36 107.43"/><polygon class="cls-67" points="242.99 134 269.98 120.5 269.98 68.11 242.99 81.61 242.99 134"/><ellipse class="cls-67" cx="274.38" cy="69.45" rx="5.16" ry="2.58"/><path class="cls-5" d="M269.08,71.09c0,1.42,2.31,2.58,5.17,2.58s5.15-1.16,5.15-2.58-2.31-2.58-5.15-2.58S269.08,69.66,269.08,71.09Z"/><polygon class="cls-5" points="252.55 84.21 278.84 70.19 270.26 69.45 244.27 82.31 252.55 84.21"/><polygon class="cls-5" points="244.27 132.63 252.55 134 252.55 83.81 244.27 82.31 244.27 132.63"/><polygon class="cls-67" points="252.55 135.33 279.54 121.83 279.54 69.45 252.55 82.94 252.55 135.33"/><polygon class="cls-68" points="251.71 139.21 283.48 122.98 283.48 79.95 251.71 96.19 251.71 139.21"/><path class="cls-68" d="M282.72,81.28c0,1.43,2.31,2.58,5.16,2.58S293,82.71,293,81.28s-2.31-2.58-5.16-2.58S282.72,79.86,282.72,81.28Z"/><path class="cls-5" d="M282.58,82.92c0,1.43,2.31,2.58,5.16,2.58s5.16-1.15,5.16-2.58-2.31-2.58-5.16-2.58S282.58,81.5,282.58,82.92Z"/><polygon class="cls-5" points="261.27 98.78 292.33 82.03 283.76 81.28 252.99 96.88 261.27 98.78"/><polygon class="cls-5" points="252.99 137.84 261.27 139.21 261.27 98.38 252.99 96.88 252.99 137.84"/><polygon class="cls-68" points="261.27 140.55 293.04 124.31 293.04 81.28 261.27 97.52 261.27 140.55"/><polygon class="cls-5" points="270.35 106.44 289.73 96.75 289.73 90.87 270.35 100.56 270.35 106.44"/><polygon class="cls-5" points="270.35 111.25 280.54 106.15 280.54 103.15 270.35 108.25 270.35 111.25"/><polygon class="cls-69" points="266.66 139.81 293.66 126.31 293.66 83.28 266.66 96.78 266.66 139.81"/><path class="cls-69" d="M292.9,84.61c0,1.43,2.31,2.58,5.16,2.58s5.16-1.15,5.16-2.58S300.91,82,298.06,82,292.9,83.19,292.9,84.61Z"/><path class="cls-5" d="M292.76,86.25c0,1.42,2.31,2.58,5.16,2.58s5.16-1.16,5.16-2.58-2.31-2.58-5.16-2.58S292.76,84.83,292.76,86.25Z"/><polygon class="cls-5" points="276.22 99.38 302.51 85.36 293.94 84.61 267.95 97.47 276.22 99.38"/><polygon class="cls-5" points="267.95 138.44 276.22 139.81 276.22 98.97 267.95 97.47 267.95 138.44"/><polygon class="cls-69" points="276.22 141.14 303.22 127.64 303.22 84.61 276.22 98.11 276.22 141.14"/><polygon class="cls-5" points="280.53 109.77 299.91 100.08 299.91 94.2 280.53 103.89 280.53 109.77"/><polygon class="cls-5" points="280.53 114.58 290.72 109.48 290.72 106.49 280.53 111.58 280.53 114.58"/><polygon class="cls-18" points="282.58 138.47 299.89 130.27 299.89 97.1 282.58 105.3 282.58 138.47"/><path class="cls-18" d="M299.13,98.44c0,1.42,2.31,2.58,5.16,2.58s5.16-1.16,5.16-2.58-2.31-2.58-5.16-2.58S299.13,97,299.13,98.44Z"/><path class="cls-5" d="M299,100.08c0,1.42,2.31,2.57,5.16,2.57s5.16-1.15,5.16-2.57-2.31-2.59-5.16-2.59S299,98.65,299,100.08Z"/><polygon class="cls-5" points="292.14 107.9 308.74 99.18 300.16 98.44 283.87 106 292.14 107.9"/><polygon class="cls-5" points="283.87 137.1 292.14 138.47 292.14 107.5 283.87 106 283.87 137.1"/><polygon class="cls-18" points="292.14 139.81 309.45 131.61 309.45 98.44 292.14 106.64 292.14 139.81"/><polygon class="cls-70" points="209.26 158.51 235.02 171.39 272.01 153.01 246.25 140.13 209.26 158.51"/><polygon class="cls-6" points="211.68 158.32 233.71 169.51 233.71 160.12 211.68 148.93 211.68 158.32"/><path class="cls-70" d="M269.88,148.33c0,2.52,1,4.57,2.13,4.57s2.12-2.05,2.12-4.57-.95-4.58-2.12-4.58S269.88,145.8,269.88,148.33Z"/><polygon class="cls-70" points="235.02 171.39 272.01 153.01 272.01 143.75 234.67 162.5 235.02 171.39"/><path class="cls-6" d="M233.71,162.11a5,5,0,0,1,1.8,4.25c0,2.43-.54,3.8-1.8,3.15Z"/><polygon class="cls-71" points="208.73 149.63 234.27 162.62 272.01 143.75 246.25 130.87 208.73 149.63"/><polygon class="cls-72" points="207.95 151.84 229.34 162.53 260.07 147.27 238.67 136.57 207.95 151.84"/><polygon class="cls-6" points="209.96 151.67 228.25 160.97 228.25 153.18 209.96 143.87 209.96 151.67"/><path class="cls-73" d="M258.3,143.37c0,2.11.8,3.81,1.77,3.81s1.76-1.7,1.76-3.81-.79-3.8-1.76-3.8S258.3,141.27,258.3,143.37Z"/><polygon class="cls-73" points="229.34 162.53 260.07 147.27 260.07 139.57 229.06 155.15 229.34 162.53"/><path class="cls-6" d="M228.25,154.83a4.1,4.1,0,0,1,1.5,3.53c0,2-.45,3.15-1.5,2.61Z"/><polygon class="cls-74" points="207.51 144.45 228.72 155.24 260.07 139.57 238.67 128.88 207.51 144.45"/><polygon class="cls-6" points="228.6 137.37 242.14 144.13 251.68 139.36 238.14 132.6 228.6 137.37"/><path class="cls-75" d="M173.68,151c1.3-.57,14.57-8.6,16.81-8.53s4.43.59,5.44,1.38-.12.76-.29.7-4.4-1.72-5.31-1.44-16.94,9.73-16.94,9.73Z"/><path class="cls-75" d="M148.63,138.1c1.3-.56,14.57-8.59,16.81-8.53s4.43.6,5.43,1.39-.11.76-.28.69-4.4-1.71-5.32-1.44S148.34,140,148.34,140Z"/><path class="cls-75" d="M148.48,139.83a4.34,4.34,0,0,1,.8,2.79,3.73,3.73,0,0,0,1.1,2.37c1,.74,3.51,2.28,3.71,2.39s2.86,1.35,3.26,1.47a1.6,1.6,0,0,0,2.23-.64c.7-1.27.55-2.17.82-2.09a4.62,4.62,0,0,1,2,1c.28.18.12.93.83,2.91a5.06,5.06,0,0,0,2.22,2.87c.4.28,3.06,1.68,3.26,1.78A38.55,38.55,0,0,0,172.4,156c1,.24,1.1-1.28,1.1-1.28.12-1.94.6-1.83.8-2s.1-.85-.15-1.87a75.23,75.23,0,0,0-7.56-3.91c-.53-.24-2.18-.77-3.29-1.2a14.57,14.57,0,0,1-1.74-.7h0a16.64,16.64,0,0,1-2.08-1.22c-1.11-.67-2.76-1.8-3.28-2.09s-6.44-3.42-7.57-3.66A2.43,2.43,0,0,0,148.48,139.83Zm14.65,7c.37-.29.87-.34,2.3.15a43.44,43.44,0,0,1,5.11,2.31c.53.33,2.39,1.34,2.58,1.94a7.26,7.26,0,0,1,0,2.93c-.21.85-.08,1.66-1.13,1.36a21.52,21.52,0,0,1-3.28-1.21c-1-.48-3.11-1.71-3.46-1.93a4.26,4.26,0,0,1-1.73-2.89A7,7,0,0,1,163.13,146.84Zm-13.47-7.34c.2-.41,2.05.45,2.58.63a50.72,50.72,0,0,1,5.11,2.81,6.06,6.06,0,0,1,2.3,2.16,5.14,5.14,0,0,1-.35,2.3c-.5,1.56-1.38,1.29-1.73,1.17s-2.45-1-3.45-1.53a32.64,32.64,0,0,1-3.29-2.07c-1.05-.75-.92-1.44-1.12-2.49A7.48,7.48,0,0,1,149.66,139.5Z"/><path class="cls-76" d="M148.19,140.17A4.29,4.29,0,0,1,149,143a3.77,3.77,0,0,0,1.1,2.38c1,.74,3.51,2.28,3.71,2.38s2.86,1.35,3.26,1.47a1.6,1.6,0,0,0,2.23-.63c.7-1.28.55-2.18.83-2.1s.59.17.94.33a9.22,9.22,0,0,1,1,.67c.28.18.13.93.83,2.92a5.07,5.07,0,0,0,2.23,2.86c.4.28,3,1.68,3.25,1.78a38.55,38.55,0,0,0,3.71,1.33c1,.24,1.1-1.27,1.1-1.27.12-1.95.6-1.84.8-2s.1-.85-.15-1.87a77.38,77.38,0,0,0-7.56-3.91c-.53-.24-2.18-.77-3.28-1.19a16.71,16.71,0,0,1-1.75-.7h0a17.32,17.32,0,0,1-2.08-1.21c-1.1-.68-2.76-1.81-3.28-2.09s-6.44-3.42-7.57-3.66A2.43,2.43,0,0,0,148.19,140.17Zm14.65,7c.38-.29.88-.34,2.31.15a43.94,43.94,0,0,1,5.1,2.31c.53.33,2.39,1.34,2.59,1.94a7.28,7.28,0,0,1-.05,2.93c-.2.85-.08,1.66-1.13,1.37a22,22,0,0,1-3.28-1.22c-1-.48-3.11-1.7-3.46-1.93a4.23,4.23,0,0,1-1.73-2.89A7,7,0,0,1,162.84,147.17Zm-13.47-7.34c.2-.4,2,.45,2.58.64a48.31,48.31,0,0,1,5.11,2.8,6.14,6.14,0,0,1,2.3,2.16,5.14,5.14,0,0,1-.35,2.3c-.5,1.56-1.37,1.29-1.72,1.17s-2.46-1-3.46-1.53a31.47,31.47,0,0,1-3.28-2.07c-1.06-.75-.93-1.44-1.13-2.49A7.48,7.48,0,0,1,149.37,139.83Z"/><path class="cls-76" d="M148.31,140a4.32,4.32,0,0,1,.8,2.78,3.77,3.77,0,0,0,1.1,2.38c1,.74,3.51,2.28,3.71,2.38s2.86,1.36,3.26,1.48a1.6,1.6,0,0,0,2.23-.64c.7-1.27.55-2.18.82-2.09a7.28,7.28,0,0,1,1,.33,10.93,10.93,0,0,1,1,.66c.27.19.12.94.82,2.92a5.06,5.06,0,0,0,2.23,2.87c.4.28,3.06,1.68,3.26,1.78a38.55,38.55,0,0,0,3.71,1.33c1,.24,1.1-1.28,1.1-1.28.12-2,.6-1.83.8-2s.1-.85-.15-1.88a80.88,80.88,0,0,0-7.56-3.91c-.53-.23-2.18-.76-3.29-1.19a14.57,14.57,0,0,1-1.74-.7h0a17.9,17.9,0,0,1-2.08-1.21c-1.1-.68-2.76-1.81-3.28-2.1a78.11,78.11,0,0,0-7.5-3.57C148.28,139.1,148.11,139.62,148.31,140ZM163,147c.37-.29.87-.34,2.3.15a45.37,45.37,0,0,1,5.11,2.3c.53.34,2.39,1.35,2.58,1.95a7.1,7.1,0,0,1,0,2.93c-.2.85-.07,1.66-1.12,1.36a23.08,23.08,0,0,1-3.28-1.21c-1-.48-3.11-1.71-3.46-1.93a4.27,4.27,0,0,1-1.73-2.9A6.94,6.94,0,0,1,163,147Zm-13.47-7.35c.2-.4,2,.46,2.58.64a50.72,50.72,0,0,1,5.11,2.81,6.13,6.13,0,0,1,2.3,2.15,5.18,5.18,0,0,1-.35,2.31c-.5,1.55-1.38,1.29-1.73,1.17s-2.45-1-3.45-1.53a30.45,30.45,0,0,1-3.28-2.07c-1.06-.75-.93-1.44-1.13-2.49A7.53,7.53,0,0,1,149.49,139.63Z"/><polygon class="cls-76" points="149.38 139.15 151.2 139.46 148.63 138.1 148.34 138.44 149.38 139.15"/><polygon class="cls-76" points="173.98 151.01 172.75 150.28 174.01 153.08 174.35 152.69 173.98 151.01"/><polygon class="cls-77" points="225.16 140.36 235.96 145.76 238.27 144.61 227.47 139.21 225.16 140.36"/><path class="cls-6" d="M222.22,142.57c-1.31.66-1.31,1.72,0,2.38a6.05,6.05,0,0,0,4.76,0c1.31-.66,1.31-1.72,0-2.38A6,6,0,0,0,222.22,142.57Z"/><polygon class="cls-78" points="202.35 128.22 187.66 119.12 201.43 109.1 229.75 114.58 202.35 128.22"/><path class="cls-54" d="M199.56,63.69c0,1.18,2.55,3.42,5.69,5s5.7,1.89,5.7.7-2.55-3.42-5.7-5S199.56,62.5,199.56,63.69Z"/><polygon class="cls-54" points="199.56 63.69 210.95 69.38 210.95 59.5 199.56 53.81 199.56 63.69"/><path class="cls-56" d="M199.56,53.81c0,1.18,2.55,3.42,5.69,5s5.7,1.88,5.7.7-2.55-3.42-5.7-5S199.56,52.62,199.56,53.81Z"/><path class="cls-8" d="M183.54,44.63a6.65,6.65,0,0,0,3.52,5.29c1.95,1,3.54.19,3.54-1.76a6.67,6.67,0,0,0-3.54-5.3C185.12,41.89,183.54,42.68,183.54,44.63Z"/><path class="cls-57" d="M185,45.34a4.05,4.05,0,0,0,2.15,3.23c1.19.59,2.15.11,2.15-1.08a4.05,4.05,0,0,0-2.15-3.23C185.91,43.67,185,44.15,185,45.34Z"/><path class="cls-79" d="M126.9,80.55c.18-5.89.46-13.5.38-15.63-1.41-.18-6.52-.62-6.8-3.74-.28-1.35-1.33-.61-1.28-.18.06.68,1.48,14.85,1.67,16.54C121.11,78.13,121.31,80,126.9,80.55Z"/><path class="cls-49" d="M218.67,113.51a2.76,2.76,0,0,1-2-.3l-2.31-1.15c-.72-.36-1-.81-.58-1l1.27-.63a2.79,2.79,0,0,1,2,.29l2.31,1.15c.72.37,1,.82.59,1Z"/></g></g></svg>