<svg xmlns="http://www.w3.org/2000/svg" xmlns:xlink="http://www.w3.org/1999/xlink" viewBox="0 0 378.07 366.43"><defs><style>.cls-1{fill:#695b46;}.cls-2{fill:#564a3a;}.cls-3{fill:#b58c65;}.cls-4{fill:#a17d5b;}.cls-5{fill:#e6e6e6;}.cls-6{fill:#fff;}.cls-7{fill:#a8825e;}.cls-8{fill:#b3b3b3;}.cls-9{fill:#4540e0;}.cls-10{fill:#a0a0a0;}.cls-11{fill:#283f4f;}.cls-12{fill:#46708c;}.cls-13{fill:#2f4a5f;}.cls-14{fill:#41d9ff;}.cls-15{fill:#267c55;}.cls-15,.cls-58{fill-rule:evenodd;}.cls-16{fill:#e8e8e8;}.cls-17{fill:#1a1a1a;}.cls-18{fill:#fd9a00;}.cls-19{fill:url(#linear-gradient);}.cls-20{fill:url(#linear-gradient-2);}.cls-21{fill:#181818;}.cls-22{fill:url(#linear-gradient-3);}.cls-23{fill:url(#linear-gradient-4);}.cls-24{fill:#c0b5ce;}.cls-25{fill:url(#linear-gradient-5);}.cls-26{fill:#6258e0;}.cls-27{fill:#3439e0;}.cls-28{fill:url(#linear-gradient-6);}.cls-29{fill:url(#linear-gradient-7);}.cls-30{fill:url(#linear-gradient-8);}.cls-31{fill:#b7cebd;}.cls-32{fill:url(#linear-gradient-9);}.cls-33{fill:#94e072;}.cls-34{fill:#8de05f;}.cls-35{fill:#80e03f;}.cls-36{fill:url(#linear-gradient-10);}.cls-37{fill:url(#linear-gradient-11);}.cls-38{fill:url(#linear-gradient-12);}.cls-39{fill:url(#linear-gradient-13);}.cls-40{fill:#e07268;}.cls-41{fill:#e06057;}.cls-42{fill:#e04c45;}.cls-43{fill:url(#linear-gradient-14);}.cls-44{fill:url(#linear-gradient-15);}.cls-45{fill:url(#linear-gradient-16);}.cls-46{fill:#f0f0f0;}.cls-47{fill:#0a1114;}.cls-48{fill:#1c2d3a;}.cls-49{fill:#858e8e;}.cls-50{fill:#07b900;}.cls-51{fill:#949a9c;}.cls-52{fill:#0e171b;}.cls-53{fill:#0f0f0f;}.cls-54{fill:#666;}.cls-55{fill:#4d4d4d;}.cls-56{fill:#999;}.cls-57,.cls-59{fill:#ccc;}.cls-58{fill:#bdbdbd;}.cls-59{stroke:gray;stroke-miterlimit:10;stroke-width:0.4px;}.cls-60{fill:url(#linear-gradient-17);}.cls-61{fill:#ff9843;}.cls-62{fill:url(#linear-gradient-18);}.cls-63{fill:#333;}.cls-64{fill:url(#linear-gradient-19);}.cls-65{fill:url(#linear-gradient-20);}.cls-66{fill:#51aacf;}.cls-67{fill:#96281b;}.cls-68{fill:#362d26;}.cls-69{fill:#db5535;}.cls-70{fill:#063f77;}.cls-71{fill:#054296;}.cls-72{fill:#771e17;}.cls-73{fill:#832e3d;}.cls-74{fill:#982f41;}.cls-75{fill:#1a3333;}.cls-76{fill:#214142;}.cls-77{fill:#ffb104;}.cls-78{fill:#192833;}.cls-79{fill:#ddd;}</style><linearGradient id="linear-gradient" x1="198.86" y1="89.16" x2="200.73" y2="89.54" gradientTransform="matrix(0.99, 0.15, -0.15, 0.99, 65.3, -42.25)" gradientUnits="userSpaceOnUse"><stop offset="0.43" stop-color="#a9a382"/><stop offset="0.8" stop-color="#7c775f"/><stop offset="1" stop-color="#a9a382"/></linearGradient><linearGradient id="linear-gradient-2" x1="198.74" y1="64.26" x2="200.77" y2="64.26" gradientTransform="matrix(0, 1, -1, 0, 317.77, -149.19)" gradientUnits="userSpaceOnUse"><stop offset="0" stop-color="#aeaeae"/><stop offset="0.46" stop-color="#9e9e9e"/><stop offset="0.81" stop-color="#7c7c7c"/><stop offset="0.86" stop-color="#7f7f7f"/><stop offset="0.9" stop-color="#898989"/><stop offset="0.94" stop-color="#9a9a9a"/><stop offset="0.97" stop-color="#b2b2b2"/><stop offset="1" stop-color="#c8c8c8"/></linearGradient><linearGradient id="linear-gradient-3" x1="199.08" y1="62.91" x2="200.99" y2="63.3" gradientTransform="matrix(0.99, 0.15, -0.15, 0.99, 65.3, -42.25)" gradientUnits="userSpaceOnUse"><stop offset="0.43" stop-color="#aeaeae"/><stop offset="0.66" stop-color="gray"/><stop offset="0.73" stop-color="#878787"/><stop offset="0.83" stop-color="#9c9c9c"/><stop offset="0.96" stop-color="#bdbdbd"/><stop offset="1" stop-color="#c8c8c8"/></linearGradient><linearGradient id="linear-gradient-4" x1="199.08" y1="65.55" x2="200.99" y2="65.94" xlink:href="#linear-gradient-3"/><linearGradient id="linear-gradient-5" x1="174.82" y1="94.2" x2="176.7" y2="94.58" gradientTransform="matrix(0.97, 0.25, -0.25, 0.97, 103.49, -60.08)" gradientUnits="userSpaceOnUse"><stop offset="0.43" stop-color="#8680a9"/><stop offset="0.8" stop-color="#5e5d7c"/><stop offset="1" stop-color="#8680a9"/></linearGradient><linearGradient id="linear-gradient-6" x1="174.71" y1="69.3" x2="176.74" y2="69.3" gradientTransform="translate(325.71 -124.89) rotate(90.01)" xlink:href="#linear-gradient-2"/><linearGradient id="linear-gradient-7" x1="175.04" y1="67.95" x2="176.96" y2="68.34" gradientTransform="matrix(0, 1, -1, 0, 324.73, -126.09)" xlink:href="#linear-gradient-3"/><linearGradient id="linear-gradient-8" x1="175.04" y1="70.59" x2="176.96" y2="70.97" gradientTransform="translate(326.66 -123.56) rotate(89.97)" xlink:href="#linear-gradient-3"/><linearGradient id="linear-gradient-9" x1="232.31" y1="58.26" x2="234.18" y2="58.64" gradientTransform="translate(12.96 30.65) rotate(-3.72)" gradientUnits="userSpaceOnUse"><stop offset="0.43" stop-color="#8ba983"/><stop offset="0.8" stop-color="#6a7c60"/><stop offset="1" stop-color="#8ba983"/></linearGradient><linearGradient id="linear-gradient-10" x1="232.19" y1="33.36" x2="234.22" y2="33.36" gradientTransform="translate(14.63 15.5) rotate(-0.01)" xlink:href="#linear-gradient-2"/><linearGradient id="linear-gradient-11" x1="232.52" y1="32.01" x2="234.44" y2="32.4" gradientTransform="translate(12.96 30.65) rotate(-3.72)" xlink:href="#linear-gradient-3"/><linearGradient id="linear-gradient-12" x1="232.53" y1="34.65" x2="234.44" y2="35.03" gradientTransform="translate(12.96 30.65) rotate(-3.72)" xlink:href="#linear-gradient-3"/><linearGradient id="linear-gradient-13" x1="243.01" y1="77.49" x2="244.89" y2="77.87" gradientTransform="translate(-3.42 30.72) rotate(-7.05)" gradientUnits="userSpaceOnUse"><stop offset="0.43" stop-color="#a98a85"/><stop offset="0.8" stop-color="#7c6261"/><stop offset="1" stop-color="#a98a85"/></linearGradient><linearGradient id="linear-gradient-14" x1="242.9" y1="52.59" x2="244.93" y2="52.59" gradientTransform="translate(1.19 0.36)" xlink:href="#linear-gradient-2"/><linearGradient id="linear-gradient-15" x1="243.23" y1="51.23" x2="245.15" y2="51.62" gradientTransform="translate(-3.42 30.72) rotate(-7.05)" xlink:href="#linear-gradient-3"/><linearGradient id="linear-gradient-16" x1="243.23" y1="53.87" x2="245.14" y2="54.26" gradientTransform="translate(-3.42 30.72) rotate(-7.05)" xlink:href="#linear-gradient-3"/><linearGradient id="linear-gradient-17" x1="242.48" y1="838.73" x2="245.26" y2="839.3" gradientTransform="translate(-254.23 -563.72) rotate(-21.64)" gradientUnits="userSpaceOnUse"><stop offset="0.43" stop-color="#c7b299"/><stop offset="0.8" stop-color="#998675"/><stop offset="1" stop-color="#c7b299"/></linearGradient><linearGradient id="linear-gradient-18" x1="234.74" y1="815.79" x2="237.31" y2="815.79" gradientTransform="translate(-254.23 -563.72) rotate(-21.64)" gradientUnits="userSpaceOnUse"><stop offset="0" stop-color="#ccc"/><stop offset="0.46" stop-color="#bcbcbc"/><stop offset="0.81" stop-color="#999"/><stop offset="0.86" stop-color="#9c9c9c"/><stop offset="0.9" stop-color="#a6a6a6"/><stop offset="0.94" stop-color="#b7b7b7"/><stop offset="0.97" stop-color="#cfcfcf"/><stop offset="1" stop-color="#e6e6e6"/></linearGradient><linearGradient id="linear-gradient-19" x1="234.99" y1="814.51" x2="236.82" y2="814.88" gradientTransform="translate(-254.23 -563.72) rotate(-21.64)" gradientUnits="userSpaceOnUse"><stop offset="0.43" stop-color="#ccc"/><stop offset="0.66" stop-color="#9d9d9d"/><stop offset="0.73" stop-color="#a4a4a4"/><stop offset="0.83" stop-color="#b9b9b9"/><stop offset="0.96" stop-color="#dadada"/><stop offset="1" stop-color="#e6e6e6"/></linearGradient><linearGradient id="linear-gradient-20" x1="235.85" y1="816.95" x2="237.54" y2="817.3" gradientTransform="matrix(0.95, -0.32, 0.32, 0.95, -216.93, -591.05)" xlink:href="#linear-gradient-19"/></defs><g id="Layer_2" data-name="Layer 2"><g id="Layer_1-2" data-name="Layer 1"><polygon class="cls-1" points="40.87 137.64 41.57 301.82 32.87 306.25 32.18 137.64 40.87 137.64"/><polygon class="cls-2" points="32.18 137.64 32.87 306.25 24.18 301.9 23.48 133.3 32.18 137.64"/><polygon class="cls-1" points="164.43 197.83 165.12 362.03 156.42 366.43 155.72 197.83 164.43 197.83"/><polygon class="cls-2" points="155.72 197.85 156.42 366.43 147.71 362.09 147.03 193.51 155.72 197.85"/><polygon class="cls-1" points="369.85 92.47 370.55 256.65 361.85 261.09 361.17 92.47 369.85 92.47"/><polygon class="cls-2" points="361.17 92.48 361.85 261.09 353.15 256.75 352.46 88.13 361.17 92.48"/><polygon class="cls-3" points="361.35 138.1 164.6 236.63 164.44 203.63 361.17 106.64 361.35 138.1"/><polygon class="cls-2" points="326.77 149.26 210.96 207.36 210.96 188.02 326.77 129.92 326.77 149.26"/><polygon class="cls-4" points="32.22 146.95 32.34 179.2 147.03 236.1 147.07 204.39 32.22 146.95"/><polygon class="cls-2" points="378.07 103.82 144.38 219.99 0 147.8 233.71 30.94 378.07 103.82"/><polygon class="cls-2" points="378.07 103.82 0 147.8 0 136.58 378.02 93.11 378.07 103.82"/><polygon class="cls-3" points="378.02 93.11 144.33 209.11 0 136.58 233.71 19.73 378.02 93.11"/><polygon class="cls-5" points="211.71 52.85 150.54 83.44 150.54 39.93 211.71 9.34 211.71 52.85"/><polygon class="cls-6" points="234.31 71.39 246.74 73.81 238.05 59.53 234.31 71.39"/><path class="cls-7" d="M220.65,154.69c-1.84-.41-27.91-12.77-31-12.51s-6.06,1-7.4,1.79.21.7.43.62,6-2,7.23-1.82,31.23,13.61,31.23,13.61Z"/><path class="cls-7" d="M254.31,140.36c-1.84-.41-36.42-11.53-39.49-11.27s-6.06,1-7.39,1.79.2.7.43.62,5.95-2,7.23-1.82,39.73,12.37,39.73,12.37Z"/><path class="cls-7" d="M254.3,140.36c-1.53.33-9.47,3.79-10.18,4.11s-2.91,1.52-4.38,2.25A28.55,28.55,0,0,1,237,148h0a24.47,24.47,0,0,1-2.36.81c-1.49.5-3.73,1.14-4.44,1.41s-8.67,3.41-10.17,4.34c-.28,1-.37,1.64-.09,1.76s.94,0,1.23,1.78a1.31,1.31,0,0,0,1.59,1.09c1.33-.31,4.75-1.47,5-1.58s3.84-1.66,4.37-2a5.8,5.8,0,0,0,2.89-2.88c.84-1.91.59-2.6,1-2.8a13.15,13.15,0,0,1,1.37-.71c.47-.18.93-.29,1.28-.4s.23.75,1.27,1.88,2.56.55,3.11.4,4.11-1.57,4.38-1.68,3.66-1.78,5-2.56a3.06,3.06,0,0,0,1.37-2.32,3.3,3.3,0,0,1,.93-2.67C254.87,141.62,254.7,141.07,254.3,140.36Zm-19.72,12a4.3,4.3,0,0,1-2.2,2.86c-.47.24-3.29,1.58-4.64,2.11a40.39,40.39,0,0,1-4.44,1.44c-1.42.37-1.3-.4-1.63-1.18a4.64,4.64,0,0,1-.25-2.73c.24-.58,2.73-1.68,3.43-2s5-2,6.89-2.62,2.63-.59,3.16-.35C234.9,149.83,235.14,150.38,234.58,152.34Zm18.51-7.8c-.21,1,0,1.63-1.39,2.43s-3,1.64-4.39,2.23-4.19,1.59-4.66,1.74a1.89,1.89,0,0,1-2.45-.93,3.39,3.39,0,0,1-.63-2.12,8,8,0,0,1,3-2.22c1.91-1,6.14-2.86,6.86-3.08s3.21-1.19,3.51-.83A4.79,4.79,0,0,1,253.09,144.54Z"/><path class="cls-7" d="M254.72,140.65c-1.54.32-9.47,3.78-10.18,4.1s-2.91,1.52-4.38,2.25a28.55,28.55,0,0,1-2.79,1.32h0c-1.07.44-1,.38-2.36.82-1.49.5-3.73,1.14-4.44,1.4s-8.67,3.41-10.17,4.34c-.28,1-.37,1.65-.09,1.77s.94,0,1.23,1.77a1.31,1.31,0,0,0,1.59,1.09c1.33-.31,4.75-1.46,5-1.57s3.84-1.67,4.37-2a5.8,5.8,0,0,0,2.89-2.88c.84-1.91.59-2.6,1-2.8a14,14,0,0,1,1.36-.71c.48-.18.94-.29,1.29-.39s.22.75,1.27,1.88,2.56.54,3.1.39,4.12-1.56,4.39-1.68,3.65-1.78,5-2.55a3.07,3.07,0,0,0,1.36-2.32,3.34,3.34,0,0,1,.93-2.67C255.29,141.9,255.12,141.35,254.72,140.65Zm-19.72,12a4.24,4.24,0,0,1-2.2,2.85c-.47.24-3.29,1.58-4.64,2.12a43.38,43.38,0,0,1-4.44,1.43c-1.43.37-1.3-.4-1.63-1.17a4.65,4.65,0,0,1-.25-2.73c.24-.58,2.73-1.69,3.43-2s4.95-2,6.89-2.61,2.62-.59,3.16-.35C235.32,150.12,235.56,150.66,235,152.63Zm18.51-7.8c-.21,1,0,1.63-1.4,2.42a46.59,46.59,0,0,1-4.39,2.23c-1.34.58-4.18,1.59-4.66,1.74a1.88,1.88,0,0,1-2.45-.93,3.4,3.4,0,0,1-.62-2.12,8,8,0,0,1,3-2.22c1.9-1,6.14-2.86,6.85-3.08s3.21-1.19,3.51-.83A4.81,4.81,0,0,1,253.51,144.83Z"/><path class="cls-7" d="M254.45,140.57c-1.54.32-9.38,3.69-10.08,4s-2.91,1.52-4.39,2.25a28.38,28.38,0,0,1-2.78,1.32h0c-1.08.43-1,.37-2.37.81-1.49.49-3.73,1.14-4.44,1.41s-8.67,3.4-10.16,4.33c-.28,1-.38,1.65-.09,1.77s.93,0,1.22,1.77a1.32,1.32,0,0,0,1.6,1.09c1.33-.31,4.75-1.46,5-1.57s3.84-1.67,4.38-2a5.8,5.8,0,0,0,2.89-2.88c.84-1.91.59-2.59.95-2.8s.87-.5,1.37-.71.94-.29,1.29-.39.22.75,1.26,1.88,2.56.54,3.11.39,4.12-1.56,4.39-1.68,3.65-1.78,4.95-2.55a3.08,3.08,0,0,0,1.37-2.33,3.29,3.29,0,0,1,.93-2.66C255.12,141.73,254.84,141.27,254.45,140.57Zm-19.63,11.88a4.24,4.24,0,0,1-2.2,2.86c-.47.24-3.28,1.58-4.63,2.12a43.38,43.38,0,0,1-4.44,1.43c-1.43.37-1.31-.4-1.64-1.17a4.72,4.72,0,0,1-.25-2.73c.24-.58,2.73-1.69,3.43-2.05s5-2,6.89-2.61,2.63-.59,3.16-.35C235.14,150,235.39,150.49,234.82,152.45Zm18.51-7.79c-.21,1,0,1.63-1.39,2.42a46.59,46.59,0,0,1-4.39,2.23c-1.35.58-4.19,1.59-4.66,1.74a1.89,1.89,0,0,1-2.45-.93,3.47,3.47,0,0,1-.63-2.12,8.12,8.12,0,0,1,3-2.22c1.91-1,6.15-2.86,6.86-3.08s3.21-1.18,3.51-.83A4.74,4.74,0,0,1,253.33,144.66Z"/><polygon class="cls-7" points="253.33 141.41 250.85 141.86 254.3 140.36 254.72 140.65 253.33 141.41"/><polygon class="cls-7" points="220.23 154.71 221.88 153.92 220.31 156.65 219.82 156.31 220.23 154.71"/><polygon class="cls-7" points="143.05 171.39 189.02 164.09 204.06 153.08 139.8 138.78 143.05 171.39"/><path class="cls-7" d="M250.8,80.34l17-3.31S286.5,56.23,285.53,53s-19.29-7.86-19.29-7.86l-24.85,2.73Z"/><polygon class="cls-7" points="277.65 80.67 304.76 72.22 274.44 58.53 277.65 80.67"/><path class="cls-7" d="M180.32,134.76,314.86,89.4s3.91-2.6,0-5.84S209.11,61.34,209.11,61.34Z"/><polygon class="cls-7" points="148.32 132.52 175.28 132.52 147.53 118.64 148.32 132.52"/><path class="cls-8" d="M280.87,39c0,1.3-1.06,1.83-2.36,1.18l-8.3-4a4.45,4.45,0,0,1-2.35-3.53h0c0-1.3,1.06-1.83,2.35-1.18l8.3,4A4.45,4.45,0,0,1,280.87,39Z"/><rect class="cls-8" x="263.6" y="42.25" width="6.32" height="8.27"/><path class="cls-8" d="M269,49.41c1.24.62,1.24,1.62,0,2.24a5.66,5.66,0,0,1-4.46,0c-1.23-.62-1.23-1.62,0-2.24A5.58,5.58,0,0,1,269,49.41Z"/><path class="cls-8" d="M269,41.14c1.24.61,1.24,1.62,0,2.23a5.58,5.58,0,0,1-4.46,0c-1.23-.61-1.23-1.62,0-2.23A5.66,5.66,0,0,1,269,41.14Z"/><rect class="cls-9" x="264.12" y="27.05" width="5.27" height="15.02"/><path class="cls-9" d="M268.62,41.14c1,.51,1,1.34,0,1.86a4.63,4.63,0,0,1-3.72,0c-1-.52-1-1.35,0-1.86A4.63,4.63,0,0,1,268.62,41.14Z"/><path class="cls-8" d="M268.62,26.12c1,.51,1,1.35,0,1.86a4.63,4.63,0,0,1-3.72,0c-1-.51-1-1.35,0-1.86A4.63,4.63,0,0,1,268.62,26.12Z"/><path class="cls-9" d="M268,26.42c.69.35.69.91,0,1.26a3.2,3.2,0,0,1-2.54,0c-.69-.35-.69-.91,0-1.26A3.2,3.2,0,0,1,268,26.42Z"/><polygon class="cls-8" points="288.33 73.17 273.56 80.56 254.13 70.85 268.9 63.46 288.33 73.17"/><polygon class="cls-8" points="288.33 73.17 254.13 70.85 254.13 66.92 288.33 69.24 288.33 73.17"/><polygon class="cls-9" points="288.33 69.24 273.56 76.63 254.13 66.92 268.9 59.53 288.33 69.24"/><polygon class="cls-8" points="283.06 70.89 277.06 73.89 269.18 69.94 275.18 66.94 283.06 70.89"/><polygon class="cls-8" points="283.06 70.89 269.18 69.94 269.18 68.35 283.06 69.29 283.06 70.89"/><polygon class="cls-9" points="283.06 69.29 277.06 72.29 269.18 68.35 275.18 65.35 283.06 69.29"/><path class="cls-9" d="M280.87,38.67a4,4,0,0,0-2-3h0c-1-.53-1.79-.1-1.79,1V66.26a3.65,3.65,0,0,0,1.79,2.9h0c1,.53,2,.16,2-.91Z"/><polygon class="cls-8" points="281.38 69.39 277.08 71.54 272.8 69.39 277.08 67.24 281.38 69.39"/><rect class="cls-8" x="272.79" y="66.49" width="8.59" height="2.91"/><polygon class="cls-9" points="281.38 66.49 277.08 68.63 272.8 66.49 277.08 64.34 281.38 66.49"/><polygon class="cls-9" points="280.87 66.22 276.79 68.35 274.44 36.53 277.65 35.58 280.87 66.22"/><path class="cls-8" d="M276.77,39.61c0,1.3-1.06,1.83-2.36,1.18l-8.29-4a4.44,4.44,0,0,1-2.35-3.54h0c0-1.3,1.05-1.82,2.35-1.17l8.29,4a4.45,4.45,0,0,1,2.36,3.54Z"/><path class="cls-8" d="M276.79,39.63a3.67,3.67,0,0,0-1.78-2.9h0c-1-.53-1.79-.1-1.79,1V67.29a3.68,3.68,0,0,0,1.79,2.9h0c1,.53,1.78.1,1.78-1Z"/><path class="cls-6" d="M275.73,39.42c0,.55-.44.78-1,.5a1.9,1.9,0,0,1-1-1.5c0-.55.45-.78,1-.5A1.87,1.87,0,0,1,275.73,39.42Z"/><polygon class="cls-9" points="274.41 36.07 265.07 31.77 269.73 31.22 277.65 35.02 274.41 36.07"/><rect class="cls-10" x="262.95" y="63.47" width="7.52" height="1.88"/><path class="cls-10" d="M269.37,64c1.47.73,1.47,1.92,0,2.65a6.65,6.65,0,0,1-5.32,0c-1.47-.73-1.47-1.92,0-2.65A6.65,6.65,0,0,1,269.37,64Z"/><path class="cls-5" d="M269.37,62.15c1.47.73,1.47,1.92,0,2.66a6.74,6.74,0,0,1-5.32,0c-1.47-.74-1.47-1.93,0-2.66A6.65,6.65,0,0,1,269.37,62.15Z"/><path class="cls-8" d="M269.05,62.31c1.28.64,1.28,1.69,0,2.33a5.86,5.86,0,0,1-4.68,0c-1.29-.64-1.29-1.69,0-2.33A5.86,5.86,0,0,1,269.05,62.31Z"/><path class="cls-6" d="M266.22,34.48c0,.46-.38.65-.84.42a1.61,1.61,0,0,1-.84-1.26c0-.47.38-.66.84-.43A1.61,1.61,0,0,1,266.22,34.48Z"/><polygon class="cls-11" points="215.97 63.11 257.08 59.57 257.08 56.1 215.97 59.6 215.97 63.11"/><path class="cls-11" d="M234.31,71.39a3.41,3.41,0,0,1-2.66,0l-15.14-7.57c-.74-.37-.74-1,0-1.33l22.22-11.12a3.41,3.41,0,0,1,2.66,0l15.14,7.57c.73.37.73,1,0,1.33Z"/><path class="cls-12" d="M234.31,67.84a3.33,3.33,0,0,1-2.66,0l-15.14-7.57c-.74-.36-.74-1,0-1.33l22.22-11.11a3.33,3.33,0,0,1,2.66,0l15.14,7.57c.73.37.73,1,0,1.33Z"/><rect class="cls-13" x="235.69" y="35.52" width="2.13" height="21.16"/><path class="cls-13" d="M237.82,35.54c0,.41-.48.73-1.07.73s-1.06-.32-1.06-.73.48-.73,1.06-.73S237.82,35.14,237.82,35.54Z"/><path class="cls-13" d="M237.82,56.68c0,.41-.48.73-1.07.73s-1.06-.32-1.06-.73.47-.73,1.06-.73S237.82,56.28,237.82,56.68Z"/><path class="cls-14" d="M259,24.36a22.45,22.45,0,0,1-44.9,0v0A22.36,22.36,0,0,1,216.5,14.2c.27-.54.57-1.07.89-1.58l.37-.59.42-.61a22.58,22.58,0,0,1,1.66-2.08A22.43,22.43,0,0,1,252,8.14c.26.24.51.49.76.76s.31.32.45.49A22.25,22.25,0,0,1,258.7,20.9,21.93,21.93,0,0,1,259,24.36Z"/><rect class="cls-13" x="235.92" y="0.71" width="2.13" height="6.99"/><path class="cls-13" d="M238.05.73c0,.4-.47.73-1.06.73s-1.07-.33-1.07-.73S236.4,0,237,0,238.05.33,238.05.73Z"/><path class="cls-13" d="M238.05,7.7c0,.41-.48.73-1.06.73s-1.07-.32-1.07-.73S236.4,7,237,7,238.05,7.3,238.05,7.7Z"/><path class="cls-15" d="M229.57,31.86c-.15.32-.1.23-.38.48s-.42.16-.52.38a3.58,3.58,0,0,1-.26.52,1.63,1.63,0,0,1-.86.32c-.37,0,0-.17-.56.17s-.66.52-.66.52-.49.38-.62.46v0s.23-.07-.12.06-.38.05-1,.08l-.65,0,.34.22s.26,0,.07.22,0,.24-.66.19a5.07,5.07,0,0,1-1.19-.22s-.2.06-.2.17-.4,0-.4.09,0,0,0,0a.71.71,0,0,1,0,.12c.07.36-.46.28-.6.42s-.07,0-.13.14.33.22.41.4-.07.19-.35.34a1,1,0,0,0-.34.26s-.07.06,0,.25a2.49,2.49,0,0,0,.56.66c.14.13.7.1.14.27a3.71,3.71,0,0,1-1.54-.12s-.21.08-.21-.19,0-.55,0-.55-.69-.92-.75-1-.41-.17-.18-.46a2.2,2.2,0,0,1,.56-.65c.2-.11.2-.19.34-.33a4.88,4.88,0,0,0,.35-.39c0-.14.05-.28.08-.42,0,0,0,.06-.25-.41s-.35-.89-.28-1a1.6,1.6,0,0,0,.09-.5l-.17-.41.17-.49s0-.14-.42-.38a1.63,1.63,0,0,1-.58-.58s-.19,0-.58-.53-.8-1.09-.66-1.29l.37-.44s.47-.27.48-.38-.46-.6-.46-.6c-.71-.55-1.05-.67-1.07-.93s0-.28-.68-.57-.81-.74-1.15-.88a6.41,6.41,0,0,1-.95-.58h0A22.36,22.36,0,0,1,216.5,14.2l.27.13c.26.13.32.23.52.25s0-.08.26-.17.32-.19.3-.42,0-.57.14-.52.5-.21.5-.21.41.07.35.41-.39.3-.36.49a1.21,1.21,0,0,0,.36.59,4,4,0,0,1,.33.35,1.26,1.26,0,0,0,.43.19c.16,0-.08-.22.31-.21s.74-.25.44.16a1.63,1.63,0,0,0-.4.78c-.08.3-.43.48-.25.73s1,.59.57.77-.83.09-1,.22a1.46,1.46,0,0,0-.36.64.9.9,0,0,0,0,.71c.12.37.8.93.87,1.08s.39.45.41.36-.41-.35-.1-.57.67,0,.44-.37a2.34,2.34,0,0,1-.18-1.13,4.92,4.92,0,0,1,.33-.55c.06-.08.19-.21.59,0a1.56,1.56,0,0,1,.66.7c.09.13.19.09.19.33s0,.5,0,.5l.23.09s0-.07.27-.09l.3,0s.17-.15.2,0,.09.4.12.54-.21.08.16.31a1.91,1.91,0,0,1,.61.46c.08.12.23.12.07.25l-.17.14c.08.08.15.17.23.26s-.75.27-.75.27a.5.5,0,0,0-.23.18c-.07.12-.17.1-.18.27s-.4.21,0,.44a1.88,1.88,0,0,0,.71.27l-1,0c-.63-.06-.68,0-1.12-.06s-.29-.19-.43,0,0,.33-.22.45-.62,0-.68.08l-.07.09a.45.45,0,0,0-.46.1c-.26.19-.36.16-.39.33s-.09.21-.28.33-.12,0-.19.11-.12,0,0,.34.4.44.49.6-.1.32-.1.32.07.27.52.4a5.39,5.39,0,0,1,1.12.32c.33.2.45.26.61.34s.66.36.26.33a11.91,11.91,0,0,1-1.32-.23,7.61,7.61,0,0,1-1-.28.18.18,0,0,0-.2.14c0,.18.32.31.32.31s0,.06.21.23a3.64,3.64,0,0,0,1,.41c.17.08.8.27.8.27a2.21,2.21,0,0,1,.76.22l.45.2a1.76,1.76,0,0,0,.92.6c.65.19.88.2.94.32s-.06.05.3.28.59.1.59.4-.23.44,0,.61a1.75,1.75,0,0,0,.67.24s-.06-.05.55.07a4.13,4.13,0,0,1,.91.18,10.17,10.17,0,0,0,1,.3c.19,0,.49.08.57.18S229.71,31.54,229.57,31.86Z"/><path class="cls-15" d="M219.24,14.23c0-.13,0-.26.08-.4a1.06,1.06,0,0,1,.43-.14c.13,0,.08-.11.33-.16a1.06,1.06,0,0,1,.71.13c.28.15.68.36.73.55a.87.87,0,0,0,.38.52,1.68,1.68,0,0,1,.54.66c.05.2.77.58.84.7a.3.3,0,0,1,0,.29c0,.17-.5-.11-.11.32s.35.19.4.42a1.3,1.3,0,0,0,.31.46.5.5,0,0,1,0,.26c-.07.12-.12.14-.35.08s-.58-.54-.58-.54-.19.23-.12.42a3.68,3.68,0,0,0,.25.52,1,1,0,0,0-.38-.1,1.17,1.17,0,0,1-.67-.34c-.26-.21-1-.51-.92-.78l.06-.26s.17-.33.1-.46-.08-.27-.29-.38-.31-.32-.47-.45-1-.88-1-.88C219.41,14.52,219.32,14.38,219.24,14.23Z"/><path class="cls-15" d="M224.63,10.9s0,.21-.42.4a6.21,6.21,0,0,1-1,.32l.51.51.31.33-.78.39s.34,0,.36.11.48.18.72.28.93.28,1,.62.48.49.53.77a.7.7,0,0,1-.12.52c-.06.13-.3.21-.12.49s.45.37.48.48a.64.64,0,0,1-.11.48c-.11.19-.34.21-.4.33a3.88,3.88,0,0,0-.11.55c-.1.39-.16.48.14.82a1.81,1.81,0,0,1,.55.75,2.93,2.93,0,0,0,.57.78c.08.15.24-.1.33.09s-.19,0,.09.18.43,0,.54-.22.26-.57.31-.7-.08-.25.11-.42a1,1,0,0,1,.43-.25l.7-.19.55-.27s-.18-.12.18-.12a4.28,4.28,0,0,0,1-.06,1.24,1.24,0,0,0,.31-.24s-.09,0-.49-.17-.67-.52-.44-.6a.92.92,0,0,1,.52-.1c.13,0,.4.2.53.24s.56-.21.21-.39-.48-.16-.52-.33.08-.46.21-.46.25,0,.38.06.16-.19.16-.19l-.12-.18.2-.12a2.23,2.23,0,0,1-.09-.5,1.55,1.55,0,0,1,.08-.43c-.33-.25-.45,0-.33-.25a.61.61,0,0,1,.4-.28.56.56,0,0,1-.2-.25c0-.13-.24-.11,0-.47s.39-.64.39-.64l0-.6A31.89,31.89,0,0,1,224.63,10.9Z"/><path class="cls-15" d="M223.37,10.55s-.5,0-.55.16-.13.49-.16.58-.47.3-.47.3-.16.08-.19.18.12.22-.1.35-.14-.09-.21.14.13.47.07.55-.15.2-.45.16.19.11-.69-.3a3.43,3.43,0,0,1-1.08-.67s-.31,0-.29-.2.56-.28-.45-.31a3,3,0,0,1-.62-.07,22.58,22.58,0,0,1,1.66-2.08,4.22,4.22,0,0,0,.39.24,2,2,0,0,0,.76.08c.14,0,.13-.23.66.19a2.9,2.9,0,0,0,1.1.56Z"/><path class="cls-15" d="M240.46,29.68c-.38,0-.75-.09-1.13-.15a6.25,6.25,0,0,1-.94,0c-.48,0-1.73-.05-2,0a3.79,3.79,0,0,1-.63.07,1,1,0,0,1-.76-.57c-.2-.39-1.47-1.17-1.3-1.2a5.88,5.88,0,0,0,.84-.39c.36-.17,1-.37,1.13-.81s-.36-.75.19-1,1.14-.45,1.27-.36.38,0,.92,0,1.09-.22,1.39-.1a10.28,10.28,0,0,0,1.32.34s0,.1.46.06,1-.22,1.37-.26.66-.21.93-.24a6.4,6.4,0,0,1,1-.15c.24,0,.16.13.35.29s.25.32.46.4a2.46,2.46,0,0,1,.73.32c.27.2.09.46.8.57s1.12-.11,1.32,0a1.14,1.14,0,0,0,.69.23,3.48,3.48,0,0,0,.93-.29c.2-.11.06-.24.2-.11s0,.6-.38.84a1.64,1.64,0,0,0-.57.52c-.16.19-.36.3-.38.51s-.16.19,0,.52-.05.3.26.62.81.26.48.66a3,3,0,0,1-.57.6c-.29.23-.59.18-.7.49a.29.29,0,0,0,.14.41s.48,0,.15.31-.46.3-.58.48-.05.18-.23.37-.24.38-.39.49a1.59,1.59,0,0,1-.58.39c-.57.28-.18.22-.87.38a3.78,3.78,0,0,1-.69.16c-.39.05-.12.37-.67-.13a9.23,9.23,0,0,1-.95-.83,12.18,12.18,0,0,0-.82-.93c-.2-.2-.36-.28-.77-.72a7.14,7.14,0,0,1-.81-.88C241,30.45,240.46,29.68,240.46,29.68Z"/><path class="cls-15" d="M253.24,9.39l-.67.7c.09-.4.15-.79.22-1.19-.25-.27-.5-.52-.76-.76h-.33c-.15.14-.29.26-.44.38,0,0-.54-.31-.66.11a7.19,7.19,0,0,0-.13.83,2.16,2.16,0,0,1-.55.79c-.08.09-.5.36-.58.48s-.24.13-.24.43a.78.78,0,0,0,.32.54s-.14.16-.22.27-.8.3-.71.47l.1.17s.15.26.06.34-.27,0-.22.22.15.52.19.61a.65.65,0,0,1,0,.65,5.76,5.76,0,0,0-.25.8s-.2-1.18-.28-1.4a1.75,1.75,0,0,0-.29-.57,1.59,1.59,0,0,0-.4-.14,1.24,1.24,0,0,0-.08.47,1.66,1.66,0,0,0,0,.75c.09.18.47.38.44.5s-.15.17-.22.31-.2,0-.61,0-.83-.28-.83-.17.26.15.34.33.27.11-.07.24-.91.3-.91.3-.1,0-.35.29a5.33,5.33,0,0,1-.57.57.43.43,0,0,1-.28,0c-.13-.07-.48-.39-.37-.1a.68.68,0,0,1,0,.64c-.11.2-.42.25-.52.52s-.31.46-.46.44a3.34,3.34,0,0,1-.68-.49s.6-.42.77-.33-.11.48.18.09.12-.69-.1-.66-.54-.1-.8-.07a3,3,0,0,1-.72,0,2.33,2.33,0,0,0-1.12-.27c-.55.08-.71-.07-1,.17s-.41.31-.43.62-.32.55-.38.69-.45.44-.52.54a1.9,1.9,0,0,1-.54.5c-.33.24-.65.51-.65.51s-.12.1,0,.37-.27.05.49.28,1,.33,1.29.42.28.34.28.54a.27.27,0,0,0,.21.28h-.33a.26.26,0,0,0-.25,0,.69.69,0,0,0-.28.3c-.1.18-.26.16-.38.28a7.68,7.68,0,0,0-.74.51c-.17.18-.22.15-.56.28s-.52.24-.55.34.44.44.64.63-.27.45-.27.45-.34-.08-.47,0-1,.09-1.09.35-.43,0-.07.27a2.54,2.54,0,0,0,1.47.39c.7.06.76-.15,1.17-.26s-.15-.21.81-.45.94-.48,1.38-.44.24-.1.68.13a1.81,1.81,0,0,0,1,.17c.33,0,.33-.17.6-.15s-.83.13.58.22,1.46-.13,1.66-.18.45-.42.51-.12-.13.37,0,.62,0,.42.58.43.61-.06.86.25,0,.43.69.46.88.29,1.47.37.69-.12,1-.24-.05,0,1.08-.67,1.73-1.22,1-1.1-.93-.13-1-.34a2.12,2.12,0,0,0-1.22-.5c-.2.08-.3-.57-.06-.55s-.45-.07.6-.16.6.06,1.41,0a16.77,16.77,0,0,1,1.79,0l.26.4c.07.1-.1.15.3.15s.6-.36,1-.11.09.33.77.33.95-.13,1.05-.08.88-.14.51-.43-.74-.05-.58-.48,0-.62.27-.8.3-.33.51-.41l.95-.39.86,0A22.25,22.25,0,0,0,253.24,9.39ZM241.08,20c-.12.39-.23.52-.15.64s-.23.56-1,.68a6.24,6.24,0,0,1-.68.08.27.27,0,0,0,.16-.13c.22-.3,0-.44.09-.8s.23-1.17.39-1.27-.08-.46.29-.32a1.16,1.16,0,0,1,.63.35C241.07,19.46,241.21,19.57,241.08,20Z"/><path class="cls-15" d="M244.92,14.77s-.34-.06-.33-.34a2.85,2.85,0,0,1,.25-.9,3.17,3.17,0,0,1,.38-.74c.17-.21.08-.31.38-.61s.28-.61.52-.64.5,0,.48.19.14.1-.42.76a3.65,3.65,0,0,0-.91,1.38l.22.49C245.53,14.45,244.92,14.78,244.92,14.77Z"/><path class="cls-13" d="M236.75,50.16c-4.15,0-7.46-2.52-9.68-6.63-1.53-2.84-2.9-9.55-2.59-14.79.53-9.15,4.43-16.65,11.68-21.45.46-.3.29-1-.23-.83-8.11,3.24-14.19,11.65-14.82,22.31a24.49,24.49,0,0,0,4.33,15.73c2.49,3.43,6.81,7,11.31,6.52A.43.43,0,0,0,236.75,50.16Z"/><path class="cls-16" d="M256.37,57.5c3.4,1.69,3.4,4.45,0,6.14a15.45,15.45,0,0,1-12.29,0c-3.4-1.69-3.4-4.45,0-6.14A15.45,15.45,0,0,1,256.37,57.5Z"/><path class="cls-17" d="M255.46,58.56c2.9,1.45,2.9,3.79,0,5.24a13.14,13.14,0,0,1-10.47,0c-2.9-1.45-2.9-3.79,0-5.24A13.14,13.14,0,0,1,255.46,58.56Z"/><path class="cls-18" d="M254.67,49.59c0,.14-.21.19-.38.17L253,49.57c-.17,0-.36-.14-.34-.27l.19-1.32c0-.13.25-.24.42-.22l1.29.19c.17,0,.32.19.3.33Z"/><path class="cls-19" d="M251,74.29a21.1,21.1,0,0,1-1.48,3.47,16.16,16.16,0,0,1-.41-3.77c.11-.88.44-1,1.15-.93S251.05,73.4,251,74.29Z"/><path class="cls-18" d="M252.3,51.72,249,74.06c0,.29,0,.54.23.57s.33-.19.38-.49l3.3-22.33Z"/><path class="cls-18" d="M252.9,51.81l-3.3,22.33a.52.52,0,0,0,.32.6.53.53,0,0,0,.48-.47l3.3-22.34Z"/><path class="cls-18" d="M253.7,51.93l-3.3,22.34c0,.29,0,.54.22.57s.34-.19.38-.48L254.31,52Z"/><rect class="cls-20" x="252.18" y="49.55" width="2.64" height="2.03" transform="translate(166.38 293.93) rotate(-81.58)"/><path class="cls-21" d="M249.58,77.06a.47.47,0,0,1-.25-.11c.09.48.16.81.16.81l.37-.73A.53.53,0,0,1,249.58,77.06Z"/><polygon class="cls-22" points="254.66 49.61 252.66 49.31 252.69 49.11 254.69 49.41 254.66 49.61"/><polygon class="cls-23" points="254.28 52.22 252.27 51.92 252.3 51.72 254.31 52.02 254.28 52.22"/><path class="cls-24" d="M257.66,50c0,.13-.23.17-.39.13L256,49.78c-.16,0-.34-.17-.31-.31l.33-1.28c0-.14.28-.22.44-.18l1.26.33a.35.35,0,0,1,.27.35Z"/><path class="cls-25" d="M251.39,74.14a20.2,20.2,0,0,1-1.83,3.31,16.11,16.11,0,0,1,0-3.8c.2-.86.54-1,1.24-.79S251.57,73.28,251.39,74.14Z"/><path class="cls-26" d="M255.08,51.85l-5.63,21.86c-.07.29,0,.55.16.6s.36-.16.43-.45L255.67,52Z"/><path class="cls-9" d="M255.67,52,250,73.86a.52.52,0,0,0,.26.62c.17,0,.45-.13.53-.41l5.63-21.87Z"/><path class="cls-27" d="M256.46,52.2l-5.63,21.87c-.08.28,0,.55.16.59s.35-.16.43-.44l5.63-21.87Z"/><rect class="cls-28" x="255.07" y="49.81" width="2.64" height="2.03" transform="translate(143.3 286.47) rotate(-75.57)"/><path class="cls-21" d="M249.72,76.76a.45.45,0,0,1-.24-.14c0,.49.08.83.08.83l.44-.69A.45.45,0,0,1,249.72,76.76Z"/><rect class="cls-29" x="256.59" y="48.63" width="0.2" height="2.03" transform="translate(144.59 285.84) rotate(-75.55)"/><rect class="cls-30" x="255.94" y="51.18" width="0.2" height="2.03" transform="translate(141.55 287.09) rotate(-75.54)"/><path class="cls-31" d="M248.78,47.64c0,.14-.17.23-.33.24l-1.31.08c-.16,0-.38-.05-.39-.19l-.08-1.33c0-.13.19-.29.35-.3l1.31-.08a.35.35,0,0,1,.36.25Z"/><path class="cls-32" d="M250.35,72.56a20.4,20.4,0,0,1-.71,3.7,15.78,15.78,0,0,1-1.19-3.6c-.08-.88.21-1.1.93-1.14S250.25,71.68,250.35,72.56Z"/><path class="cls-33" d="M246.91,50.22l1.46,22.53c0,.29.17.52.34.51s.29-.26.27-.55l-1.46-22.53Z"/><path class="cls-34" d="M247.52,50.18,249,72.71c0,.29.27.52.44.51a.53.53,0,0,0,.37-.56l-1.46-22.54Z"/><path class="cls-35" d="M248.33,50.12l1.46,22.54c0,.29.16.52.34.51s.29-.26.27-.56l-1.46-22.52Z"/><rect class="cls-36" x="246.82" y="47.52" width="2.03" height="2.64" transform="translate(-2.64 16.14) rotate(-3.71)"/><path class="cls-21" d="M249.58,75.56a.42.42,0,0,1-.27-.06c.19.46.33.76.33.76l.2-.79A.45.45,0,0,1,249.58,75.56Z"/><polygon class="cls-37" points="248.78 47.66 246.75 47.79 246.74 47.58 248.76 47.45 248.78 47.66"/><polygon class="cls-38" points="248.95 50.29 246.93 50.42 246.91 50.22 248.94 50.09 248.95 50.29"/><path class="cls-18" d="M246,51.71c0,.14-.15.24-.32.26l-1.29.16c-.17,0-.39,0-.4-.17l-.17-1.32c0-.14.18-.3.34-.32l1.3-.16a.36.36,0,0,1,.38.23Z"/><path class="cls-39" d="M249,76.49a20.54,20.54,0,0,1-.5,3.75,16.35,16.35,0,0,1-1.4-3.53c-.12-.87.16-1.11.87-1.19S248.83,75.62,249,76.49Z"/><path class="cls-40" d="M244.25,54.39,247,76.8c0,.29.19.52.37.49s.27-.27.23-.56l-2.77-22.41Z"/><path class="cls-41" d="M244.85,54.32l2.77,22.41c0,.29.3.5.47.48a.52.52,0,0,0,.34-.58l-2.77-22.41Z"/><path class="cls-42" d="M245.66,54.22l2.77,22.41c0,.29.19.51.37.49s.27-.27.23-.57l-2.77-22.41Z"/><rect class="cls-43" x="244.08" y="51.64" width="2.03" height="2.64" transform="translate(-4.65 30.51) rotate(-7.06)"/><path class="cls-21" d="M248.39,79.54a.53.53,0,0,1-.28,0l.37.74s.07-.33.16-.81A.44.44,0,0,1,248.39,79.54Z"/><polygon class="cls-44" points="245.96 51.73 243.95 51.98 243.92 51.77 245.94 51.53 245.96 51.73"/><polygon class="cls-45" points="246.28 54.35 244.27 54.59 244.25 54.39 246.26 54.15 246.28 54.35"/><path class="cls-46" d="M257.59,61.18c0,1-.72,1.9-2.17,2.62a11.81,11.81,0,0,1-5,1.08,12.15,12.15,0,0,1-5.45-1.08c-1.44-.72-2.17-1.67-2.17-2.62l-1.24-.62,2.26,16.85,13.45.13,1.68-17Z"/><path class="cls-46" d="M255.27,74.8c2.63,1.32,2.63,3.45,0,4.77a12,12,0,0,1-9.53,0c-2.63-1.32-2.63-3.45,0-4.77A12,12,0,0,1,255.27,74.8Z"/><polygon points="263.1 93.5 125.14 106.92 125.03 102.4 263.1 89.1 263.1 93.5"/><path class="cls-47" d="M262.67,92.64c.79.4.69,1.09-.24,1.55l-80.24,40.12a3.93,3.93,0,0,1-3.09.12L125.65,107.7c-.79-.4-.68-1.09.23-1.55L206.12,66a4,4,0,0,1,3.1-.11Z"/><path class="cls-48" d="M262.56,88.06c.8.4.69,1.1-.23,1.56l-80.24,40.11a3.89,3.89,0,0,1-3.09.12l-53.45-26.73c-.79-.39-.69-1.09.23-1.54L206,61.46a3.89,3.89,0,0,1,3.09-.12Z"/><path class="cls-49" d="M148.16,104.45c.4.2.4.53,0,.73l-1.27.64a1.87,1.87,0,0,1-1.45,0l-1.27-.64c-.41-.2-.41-.53,0-.73l1.27-.64a1.83,1.83,0,0,1,1.45,0Z"/><path class="cls-49" d="M153.12,102c.4.2.4.52,0,.72l-1.28.64a1.8,1.8,0,0,1-1.44,0l-1.28-.64c-.4-.2-.4-.52,0-.72l1.28-.64a1.8,1.8,0,0,1,1.44,0Z"/><path class="cls-49" d="M156.46,100.3c.4.2.4.53,0,.73l-1.27.63a1.83,1.83,0,0,1-1.45,0l-1.27-.63c-.4-.2-.4-.53,0-.73l1.27-.64a1.92,1.92,0,0,1,1.45,0Z"/><path class="cls-49" d="M159.75,98.65c.4.21.4.53,0,.73l-1.27.64a1.83,1.83,0,0,1-1.45,0l-1.27-.64c-.4-.2-.41-.52,0-.73L157,98a1.83,1.83,0,0,1,1.45,0Z"/><path class="cls-49" d="M163,97c.41.21.41.53,0,.73l-1.27.64a1.83,1.83,0,0,1-1.45,0L159,97.77c-.4-.2-.4-.52,0-.72l1.27-.64a1.83,1.83,0,0,1,1.45,0Z"/><path class="cls-49" d="M167.07,95c.39.21.39.52,0,.73l-1.29.63a1.76,1.76,0,0,1-1.44,0l-1.28-.63c-.39-.21-.39-.52,0-.73l1.28-.63a1.72,1.72,0,0,1,1.44,0Z"/><path class="cls-49" d="M170.41,93.33c.39.2.39.53,0,.72l-1.28.64a1.83,1.83,0,0,1-1.45,0l-1.27-.64c-.41-.19-.41-.52,0-.72l1.27-.64a1.92,1.92,0,0,1,1.45,0Z"/><path class="cls-49" d="M173.69,91.69c.4.2.4.52,0,.72l-1.27.64a1.83,1.83,0,0,1-1.45,0l-1.27-.64c-.4-.2-.4-.52,0-.72l1.27-.64a1.83,1.83,0,0,1,1.45,0Z"/><path class="cls-49" d="M176.91,90.08c.4.2.4.52,0,.72l-1.28.64a1.8,1.8,0,0,1-1.44,0l-1.28-.64c-.4-.19-.4-.52,0-.72l1.28-.64a1.8,1.8,0,0,1,1.44,0Z"/><path class="cls-49" d="M180.82,88.12c.41.2.41.52,0,.72l-1.28.65a1.92,1.92,0,0,1-1.45,0l-1.27-.65c-.4-.2-.4-.52,0-.72l1.28-.64a1.8,1.8,0,0,1,1.44,0Z"/><path class="cls-49" d="M184.17,86.44c.4.22.4.53,0,.73l-1.28.64a1.8,1.8,0,0,1-1.44,0l-1.28-.64c-.4-.2-.4-.51,0-.73l1.28-.63a1.8,1.8,0,0,1,1.44,0Z"/><path class="cls-49" d="M187.46,84.81c.4.2.4.52,0,.72l-1.28.64a1.8,1.8,0,0,1-1.44,0l-1.28-.64c-.4-.2-.4-.52,0-.72l1.28-.64a1.72,1.72,0,0,1,1.44,0Z"/><path class="cls-49" d="M190.67,83.2c.4.2.4.52,0,.72l-1.27.64a1.83,1.83,0,0,1-1.45,0l-1.27-.64c-.4-.2-.4-.52,0-.72l1.27-.64a1.83,1.83,0,0,1,1.45,0Z"/><path class="cls-49" d="M194.46,81.3c.4.2.4.52,0,.72l-1.27.64a1.83,1.83,0,0,1-1.45,0L190.47,82c-.4-.2-.4-.52,0-.72l1.27-.63a1.75,1.75,0,0,1,1.45,0Z"/><path class="cls-49" d="M197.75,79.65c.4.21.4.53,0,.73l-1.27.64A1.8,1.8,0,0,1,195,81l-1.28-.64c-.4-.2-.4-.52,0-.73L195,79a1.8,1.8,0,0,1,1.44,0Z"/><path class="cls-49" d="M201,78.05c.4.2.4.53,0,.72l-1.28.64a1.8,1.8,0,0,1-1.44,0L197,78.77c-.4-.19-.4-.52,0-.72l1.28-.64a1.89,1.89,0,0,1,1.44,0Z"/><path class="cls-49" d="M208.81,77.58c.4.2.4.52,0,.72l-1.28.64a1.8,1.8,0,0,1-1.44,0l-1.28-.64c-.39-.2-.39-.52,0-.72l1.28-.64a1.8,1.8,0,0,1,1.44,0Z"/><path class="cls-49" d="M212.14,75.91c.41.2.41.52,0,.72l-1.28.64a1.8,1.8,0,0,1-1.44,0l-1.28-.64c-.4-.2-.4-.52,0-.72l1.28-.64a1.8,1.8,0,0,1,1.44,0Z"/><path class="cls-49" d="M215.44,74.26c.4.2.4.52,0,.72l-1.27.64a1.83,1.83,0,0,1-1.45,0L211.45,75c-.41-.2-.41-.52,0-.72l1.27-.64a1.83,1.83,0,0,1,1.45,0Z"/><path class="cls-49" d="M218.65,72.65c.4.2.4.52,0,.73l-1.27.64a1.92,1.92,0,0,1-1.45,0l-1.27-.64c-.4-.21-.4-.53,0-.73l1.27-.63a1.83,1.83,0,0,1,1.45,0Z"/><path class="cls-49" d="M212.51,79.43c.4.2.4.53,0,.72l-1.27.64a1.83,1.83,0,0,1-1.45,0l-1.27-.64c-.4-.19-.4-.52,0-.72l1.27-.63a1.83,1.83,0,0,1,1.45,0Z"/><path class="cls-49" d="M215.85,77.76c.4.2.4.52,0,.73l-1.27.64a1.89,1.89,0,0,1-1.44,0l-1.28-.64c-.4-.21-.4-.53,0-.73l1.28-.64a1.8,1.8,0,0,1,1.44,0Z"/><path class="cls-49" d="M219.15,76.11c.39.2.39.53,0,.73l-1.28.63a1.85,1.85,0,0,1-1.44,0l-1.28-.64c-.4-.2-.4-.53,0-.73l1.28-.63a1.8,1.8,0,0,1,1.44,0Z"/><path class="cls-49" d="M222.36,74.51c.4.2.4.52,0,.72l-1.27.64a1.83,1.83,0,0,1-1.45,0l-1.28-.64c-.39-.2-.39-.52,0-.72l1.28-.64a1.83,1.83,0,0,1,1.45,0Z"/><path class="cls-49" d="M216.07,81.2c.4.21.4.53,0,.73l-1.28.63a1.83,1.83,0,0,1-1.45,0l-1.27-.63c-.4-.2-.4-.52,0-.73l1.27-.63a1.83,1.83,0,0,1,1.45,0Z"/><path class="cls-49" d="M219.41,79.54c.4.19.4.52,0,.72l-1.28.64a1.8,1.8,0,0,1-1.44,0l-1.28-.64c-.4-.2-.4-.53,0-.73l1.28-.64a1.89,1.89,0,0,1,1.44,0Z"/><path class="cls-49" d="M222.7,77.89c.4.2.4.52,0,.72l-1.28.64a1.8,1.8,0,0,1-1.44,0l-1.28-.64c-.4-.2-.4-.52,0-.72l1.28-.64a1.89,1.89,0,0,1,1.44,0Z"/><path class="cls-49" d="M223.11,81.39c.4.2,0,.72-.88,1.17L219.39,84a3.47,3.47,0,0,1-2.33.44l-1.28-.64c-.4-.2,0-.72.89-1.17l2.84-1.42a3.53,3.53,0,0,1,2.33-.44Z"/><path class="cls-49" d="M226.41,79.74c.4.2.4.53,0,.72l-1.28.64a1.83,1.83,0,0,1-1.45,0l-1.27-.64c-.4-.19-.4-.52,0-.72l1.28-.63a1.8,1.8,0,0,1,1.44,0Z"/><path class="cls-49" d="M228.64,77.64c.94.48,1.38,1,1,1.22l-1.27.64a3.64,3.64,0,0,1-2.43-.5l-3-1.5c-.94-.47-1.39-1-1-1.22l1.27-.64a3.77,3.77,0,0,1,2.43.5Z"/><path class="cls-49" d="M198,83c.4.2.4.52,0,.72l-1.28.64a1.89,1.89,0,0,1-1.44,0L194,83.73c-.4-.2-.4-.52,0-.73l1.28-.63a1.8,1.8,0,0,1,1.44,0Z"/><path class="cls-49" d="M201.24,81.36c.4.2.4.52,0,.73l-1.28.63a1.8,1.8,0,0,1-1.44,0l-1.28-.63c-.4-.21-.4-.53,0-.73l1.28-.64a1.8,1.8,0,0,1,1.44,0Z"/><path class="cls-49" d="M204.45,79.75c.41.21.4.53,0,.73l-1.27.63a1.83,1.83,0,0,1-1.45,0l-1.27-.63c-.4-.21-.4-.52,0-.73l1.27-.64a1.83,1.83,0,0,1,1.45,0Z"/><path class="cls-49" d="M208.88,88.51c.4.2.4.52,0,.72l-1.28.64a1.8,1.8,0,0,1-1.44,0l-1.28-.64c-.39-.2-.39-.52,0-.72l1.28-.64a1.8,1.8,0,0,1,1.44,0Z"/><path class="cls-49" d="M212.17,86.87c.4.19.4.52,0,.72l-1.28.64a1.8,1.8,0,0,1-1.44,0l-1.28-.64c-.4-.2-.4-.53,0-.72l1.28-.64a1.72,1.72,0,0,1,1.44,0Z"/><path class="cls-49" d="M215.38,85.26c.4.2.4.52,0,.72l-1.27.64a1.83,1.83,0,0,1-1.45,0L211.38,86c-.39-.2-.39-.52,0-.72l1.28-.64a1.83,1.83,0,0,1,1.45,0Z"/><path class="cls-49" d="M208.8,85.18c.4.2.4.52,0,.72l-1.28.64a1.92,1.92,0,0,1-1.45,0l-1.27-.64c-.4-.2-.4-.52,0-.72l1.27-.64a1.83,1.83,0,0,1,1.45,0Z"/><path class="cls-50" d="M203.91,75.78c.39.2.39.51,0,.7h0a1.76,1.76,0,0,1-1.42,0h0c-.39-.19-.39-.5,0-.7h0a1.73,1.73,0,0,1,1.41,0Z"/><path class="cls-49" d="M207.25,74.11c.39.19.39.51,0,.71h0a1.73,1.73,0,0,1-1.41,0h0c-.4-.2-.4-.52,0-.71h0a1.73,1.73,0,0,1,1.41,0Z"/><path class="cls-49" d="M210.73,72.37c.39.19.39.51,0,.71h0a1.76,1.76,0,0,1-1.42,0h0c-.39-.2-.39-.52,0-.71h0a1.73,1.73,0,0,1,1.41,0Z"/><path class="cls-49" d="M155.08,104.44c.39.2.39.53,0,.73l-1.28.64a1.76,1.76,0,0,1-1.44,0l-1.28-.63c-.4-.2-.4-.53,0-.73l1.28-.64a1.89,1.89,0,0,1,1.44,0Z"/><path class="cls-49" d="M158.64,102.67c.4.19.4.51,0,.72l-1.28.64a1.89,1.89,0,0,1-1.44,0l-1.28-.64c-.4-.21-.4-.53,0-.72l1.28-.64a1.72,1.72,0,0,1,1.44,0Z"/><path class="cls-49" d="M162.2,100.88c.4.21.4.52,0,.72l-1.28.64a1.8,1.8,0,0,1-1.44,0l-1.28-.64c-.39-.2-.39-.51,0-.72l1.28-.64a1.8,1.8,0,0,1,1.44,0Z"/><path class="cls-49" d="M165.76,99.1c.41.2.41.52,0,.72l-1.27.64a1.92,1.92,0,0,1-1.45,0l-1.27-.64c-.4-.2-.4-.52,0-.72l1.27-.64a1.83,1.83,0,0,1,1.45,0Z"/><path class="cls-49" d="M169.33,97.31c.4.21.4.53,0,.73l-1.27.64a1.85,1.85,0,0,1-1.46,0L165.34,98c-.41-.2-.41-.52,0-.73l1.26-.63a1.85,1.85,0,0,1,1.46,0Z"/><path class="cls-49" d="M172.89,95.54c.4.19.4.52,0,.72l-1.27.64a1.92,1.92,0,0,1-1.45,0l-1.28-.64c-.39-.2-.39-.53,0-.72l1.28-.64a1.83,1.83,0,0,1,1.45,0Z"/><path class="cls-49" d="M176.46,93.75c.4.2.4.52,0,.73l-1.28.63a1.8,1.8,0,0,1-1.44,0l-1.28-.63c-.4-.21-.4-.53,0-.73l1.28-.64a1.89,1.89,0,0,1,1.44,0Z"/><path class="cls-49" d="M180,92c.4.2.4.53,0,.72l-1.28.64a1.8,1.8,0,0,1-1.44,0L176,92.69c-.39-.19-.39-.52,0-.72l1.28-.64a1.8,1.8,0,0,1,1.44,0Z"/><path class="cls-49" d="M183.58,90.19c.4.2.4.52,0,.72l-1.27.64a1.8,1.8,0,0,1-1.44,0l-1.29-.64c-.39-.2-.39-.52,0-.72l1.29-.64a1.8,1.8,0,0,1,1.44,0Z"/><path class="cls-49" d="M187.15,88.41c.4.2.4.52,0,.72l-1.28.64a1.83,1.83,0,0,1-1.45,0l-1.27-.64c-.4-.2-.4-.52,0-.72l1.27-.64a1.83,1.83,0,0,1,1.45,0Z"/><path class="cls-49" d="M190.71,86.63c.4.2.4.52,0,.72l-1.28.63A1.72,1.72,0,0,1,188,88l-1.28-.63c-.4-.2-.39-.53,0-.72L188,86a1.8,1.8,0,0,1,1.44,0Z"/><path class="cls-49" d="M160.56,105.41c.4.2.4.52,0,.72l-1.27.63a1.75,1.75,0,0,1-1.45,0l-1.27-.63c-.4-.2-.4-.52,0-.72l1.27-.64a1.83,1.83,0,0,1,1.45,0Z"/><path class="cls-49" d="M164.13,103.62c.39.2.39.53,0,.73l-1.28.64a1.89,1.89,0,0,1-1.44,0l-1.28-.64c-.4-.2-.4-.53,0-.73l1.28-.63a1.8,1.8,0,0,1,1.44,0Z"/><path class="cls-49" d="M167.69,101.84c.4.2.4.52,0,.72l-1.28.64a1.76,1.76,0,0,1-1.44,0l-1.28-.64c-.4-.2-.4-.52,0-.72l1.28-.64a1.92,1.92,0,0,1,1.45,0Z"/><path class="cls-49" d="M171.26,100.06c.39.2.39.52,0,.73l-1.28.63a1.83,1.83,0,0,1-1.45,0l-1.27-.63c-.4-.21-.4-.53,0-.73l1.27-.64a1.92,1.92,0,0,1,1.45,0Z"/><path class="cls-49" d="M174.82,98.28c.4.2.4.52,0,.72l-1.28.64a1.8,1.8,0,0,1-1.44,0L170.82,99c-.4-.2-.4-.52,0-.72l1.28-.64a1.8,1.8,0,0,1,1.44,0Z"/><path class="cls-49" d="M178.38,96.49c.4.2.4.53,0,.73l-1.27.64a1.83,1.83,0,0,1-1.45,0l-1.27-.64c-.4-.2-.4-.53,0-.72l1.27-.64a1.83,1.83,0,0,1,1.45,0Z"/><path class="cls-49" d="M182,94.72c.39.19.39.52,0,.72l-1.27.64a1.8,1.8,0,0,1-1.44,0L178,95.44c-.41-.2-.41-.53,0-.72l1.27-.64a1.8,1.8,0,0,1,1.44,0Z"/><path class="cls-49" d="M185.51,92.93c.4.21.4.53,0,.73l-1.28.63a1.8,1.8,0,0,1-1.44,0l-1.28-.63c-.39-.2-.39-.52,0-.73l1.28-.64a1.89,1.89,0,0,1,1.44,0Z"/><path class="cls-49" d="M189.07,91.15c.4.2.4.53,0,.73l-1.27.63a1.83,1.83,0,0,1-1.45,0l-1.28-.63c-.39-.2-.39-.53,0-.73l1.28-.64a1.83,1.83,0,0,1,1.45,0Z"/><path class="cls-49" d="M192.63,89.37c.41.2.41.52,0,.72l-1.27.64a1.83,1.83,0,0,1-1.45,0l-1.27-.64c-.4-.2-.4-.52,0-.72l1.27-.64a1.85,1.85,0,0,1,1.46,0Z"/><path class="cls-49" d="M196.2,87.59c.4.2.4.52,0,.72l-1.27.64a1.83,1.83,0,0,1-1.45,0l-1.28-.64c-.4-.2-.4-.52,0-.72l1.28-.64a1.83,1.83,0,0,1,1.45,0Z"/><path class="cls-49" d="M169.22,105c.4.2.4.52,0,.72l-1.27.64a1.83,1.83,0,0,1-1.45,0l-1.28-.64c-.4-.2-.4-.52,0-.72l1.28-.64a1.8,1.8,0,0,1,1.44,0Z"/><path class="cls-49" d="M172.79,103.18c.39.21.39.53,0,.73l-1.29.64a1.8,1.8,0,0,1-1.44,0l-1.27-.64c-.4-.2-.4-.52,0-.73l1.27-.63a1.8,1.8,0,0,1,1.44,0Z"/><path class="cls-49" d="M176.34,101.41c.41.19.41.52,0,.72l-1.27.64a1.83,1.83,0,0,1-1.45,0l-1.27-.64c-.4-.2-.4-.53,0-.72l1.27-.64a1.83,1.83,0,0,1,1.45,0Z"/><path class="cls-49" d="M179.91,99.62c.4.2.4.53,0,.73l-1.27.63a1.83,1.83,0,0,1-1.45,0l-1.27-.63c-.41-.2-.41-.53,0-.73l1.28-.63a1.75,1.75,0,0,1,1.45,0Z"/><path class="cls-49" d="M183.47,97.84c.4.2.4.52,0,.72l-1.27.64a1.83,1.83,0,0,1-1.45,0l-1.27-.64c-.41-.2-.41-.52,0-.72l1.28-.64a1.83,1.83,0,0,1,1.45,0Z"/><path class="cls-49" d="M187,96.06c.4.2.4.52,0,.72l-1.28.64a1.76,1.76,0,0,1-1.44,0L183,96.78c-.4-.2-.4-.52,0-.72l1.28-.64a1.8,1.8,0,0,1,1.44,0Z"/><path class="cls-49" d="M190.61,94.27c.39.21.39.53,0,.73l-1.28.63a1.75,1.75,0,0,1-1.45,0L186.61,95c-.4-.2-.4-.52,0-.73l1.27-.63a1.8,1.8,0,0,1,1.44,0Z"/><path class="cls-49" d="M194.17,92.5c.39.19.39.52,0,.71l-1.28.65a1.87,1.87,0,0,1-1.45,0l-1.27-.64c-.4-.19-.4-.52,0-.71l1.27-.64a1.75,1.75,0,0,1,1.45,0Z"/><path class="cls-49" d="M201.29,88.93c.4.2,0,.73-.9,1.18l-2.87,1.43a3.53,3.53,0,0,1-2.36.46l-1.27-.64c-.4-.2,0-.73.9-1.18l2.88-1.44a3.48,3.48,0,0,1,2.35-.45Z"/><path class="cls-49" d="M191.55,84.2l-1.27.64c-.4.2-.4.53,0,.72l1.27.64a1.83,1.83,0,0,0,1.45,0l.94-.47,2.94,1.47a1.65,1.65,0,0,0,1.3.12c.28-.14.18-.43-.25-.65l-3.65-1.83-.29-.13-1-.51A1.92,1.92,0,0,0,191.55,84.2Z"/><path class="cls-49" d="M174.37,105.71a2.08,2.08,0,0,0,1.64,0l19.06-9.53c.47-.24.51-.6.08-.82l-.9-.46a2.13,2.13,0,0,0-1.64,0l-19.06,9.54c-.47.23-.51.6-.08.81Z"/><path class="cls-49" d="M199,93.56c.4.21.4.53,0,.72l-1.28.64a1.8,1.8,0,0,1-1.44,0L195,94.28c-.4-.19-.4-.51,0-.72l1.28-.63a1.8,1.8,0,0,1,1.44,0Z"/><path class="cls-49" d="M204.79,90.68c.41.2.14.65-.58,1l-2.31,1.16a2.86,2.86,0,0,1-2,.3l-1.28-.64c-.39-.21-.13-.66.59-1l2.31-1.16a2.81,2.81,0,0,1,2-.3Z"/><path class="cls-49" d="M165.73,106.71c.4.2,0,.7-.81,1.13l-2.71,1.36a3.3,3.3,0,0,1-2.26.4l-1.28-.63c-.4-.2,0-.71.82-1.14l2.71-1.35a3.25,3.25,0,0,1,2.26-.41Z"/><path class="cls-49" d="M157.08,107.15c.4.2.13.66-.6,1l-2.35,1.18a2.87,2.87,0,0,1-2,.3L150.8,109c-.4-.21-.13-.66.6-1l2.36-1.18a2.86,2.86,0,0,1,2.05-.3Z"/><path class="cls-49" d="M159.21,110c.39.21.39.53,0,.73l-1.28.64a1.83,1.83,0,0,1-1.45,0l-1.27-.64c-.4-.2-.4-.52,0-.73l1.27-.63a1.83,1.83,0,0,1,1.45,0Z"/><path class="cls-49" d="M170.89,107.76a1.83,1.83,0,0,0,1.45,0l1.28-.63c.39-.2.39-.53,0-.73l-1.27-.63a1.83,1.83,0,0,0-1.45,0l-1.27.63c-.4.2-.4.53,0,.73Z"/><path class="cls-49" d="M165.12,110.64a2.73,2.73,0,0,0,2-.28l2.31-1.16c.73-.36,1-.81.59-1l-1.28-.64a2.8,2.8,0,0,0-2,.29L164.43,109c-.72.36-1,.81-.59,1Z"/><path class="cls-49" d="M151.61,106.18c.4.2.4.53,0,.72l-1.28.63a1.72,1.72,0,0,1-1.44,0l-1.28-.63c-.4-.2-.4-.52,0-.72l1.28-.64a1.8,1.8,0,0,1,1.44,0Z"/><path class="cls-51" d="M229.76,99.07c.75.37.75,1,0,1.35l-26,13a3.45,3.45,0,0,1-2.71,0l-12.21-6.1c-.75-.38-.75-1,0-1.36l26.06-13a3.45,3.45,0,0,1,2.71,0Z"/><polygon class="cls-52" points="144.06 101.66 140.6 103.39 136.97 101.58 140.44 99.84 144.06 101.66"/><polygon points="207.72 4.78 125.16 101.59 122.72 100.83 205.43 4.13 207.72 4.78"/><path class="cls-47" d="M205.87,58.31a3,3,0,0,1-1.66,2.27L124,100.7c-.92.46-1.66.19-1.66-.6V46.65A3,3,0,0,1,124,44.39L204.21,4.26c.92-.46,1.66-.2,1.66.6Z"/><path class="cls-53" d="M208.13,59a3,3,0,0,1-1.66,2.27l-80.24,40.13c-.92.45-1.66.19-1.66-.6V47.32a2.94,2.94,0,0,1,1.66-2.26L206.47,4.92c.92-.45,1.66-.19,1.66.6Z"/><path class="cls-48" d="M208.13,59a3,3,0,0,1-1.66,2.27l-80.24,40.13c-.92.45-1.66.19-1.66-.6V47.32a2.94,2.94,0,0,1,1.66-2.26L206.47,4.92c.92-.45,1.66-.19,1.66.6Z"/><path class="cls-6" d="M203.25,58.29a2.62,2.62,0,0,1-1.47,2L130.92,95.73c-.81.4-1.47.17-1.47-.53V48a2.63,2.63,0,0,1,1.47-2l70.86-35.44c.81-.4,1.47-.17,1.47.53Z"/><polygon class="cls-49" points="154.03 50.19 132.46 60.98 132.46 48.04 154.03 37.26 154.03 50.19"/><polygon class="cls-49" points="154.03 55.24 132.46 66.03 132.46 64.88 154.03 54.09 154.03 55.24"/><polygon class="cls-49" points="154.03 60.29 132.46 71.08 132.46 69.93 154.03 59.14 154.03 60.29"/><polygon class="cls-49" points="150.61 67.05 132.46 76.13 132.46 74.98 150.61 65.89 150.61 67.05"/><polygon class="cls-49" points="154.03 70.28 132.46 81.17 132.46 80.03 154.03 69.12 154.03 70.28"/><polygon class="cls-49" points="154.03 75.32 132.46 86.23 132.46 85.07 154.03 74.17 154.03 75.32"/><polygon class="cls-49" points="151.12 81.94 132.46 91.28 132.46 90.12 151.12 80.79 151.12 81.94"/><polygon class="cls-54" points="175.61 46.42 163.61 52.42 163.61 40.41 175.61 34.41 175.61 46.42"/><path class="cls-55" d="M199.31,44c0,3.78-3.06,8.38-6.84,10.27s-6.85.35-6.85-3.43,3.07-8.37,6.85-10.26S199.31,40.25,199.31,44Z"/><polygon class="cls-55" points="181.62 37.83 175.61 46.42 175.61 34.41 181.62 25.83 181.62 37.83"/><polygon class="cls-56" points="175.61 34.41 163.61 40.41 169.61 31.83 181.62 25.83 175.61 34.41"/><polygon class="cls-57" points="308.31 124.53 268.58 144.39 220.03 120.12 259.77 100.25 308.31 124.53"/><polygon class="cls-58" points="265.35 105.59 266.21 105.59 282.52 124.44 283.28 128 265.35 105.59"/><polygon class="cls-59" points="243.82 118.55 265.82 123.15 253.02 129.55 243.82 118.55"/><path class="cls-59" d="M265.82,123.15c.95.47-1.14,2.29-4.67,4.06S254,130,253,129.55s1.14-2.3,4.67-4.07S264.87,122.67,265.82,123.15Z"/><path class="cls-18" d="M266.18,106.58c.09.11,0,.07-.19.08l-1.27.07c-.17,0-.25,0-.34,0l-.83-1c-.09-.1,0-.1.2-.11l1.27-.07c.16,0,.24,0,.33.08Z"/><path class="cls-60" d="M281.92,125.22a15.28,15.28,0,0,1,1.36,2.78,29.44,29.44,0,0,1-3.24-2.68c-.57-.66-.4-.83.3-.87S281.32,124.57,281.92,125.22Z"/><path class="cls-18" d="M266,108.59l14.12,16.79a.94.94,0,0,0,.63.37c.18,0,.15-.19,0-.41l-14.12-16.78Z"/><path class="cls-18" d="M266.59,108.56l14.12,16.78a1,1,0,0,0,.63.38c.18,0,.15-.2,0-.41l-14.12-16.78Z"/><path class="cls-61" d="M267.19,108.53l14.12,16.78a1,1,0,0,0,.63.38c.18,0,.15-.2,0-.42l-14.12-16.78Z"/><polygon class="cls-62" points="267.79 108.5 265.99 108.59 264.24 106.52 266.05 106.42 267.79 108.5"/><path class="cls-63" d="M282.83,127.48a1.1,1.1,0,0,1-.31,0l.76.56-.24-.59A.37.37,0,0,1,282.83,127.48Z"/><polygon class="cls-64" points="266.24 106.65 264.44 106.75 264.24 106.52 266.05 106.42 266.24 106.65"/><rect class="cls-65" x="265.99" y="108.54" width="1.81" transform="translate(-5.5 14.66) rotate(-3.11)"/><path class="cls-18" d="M273.79,128.29c-2.91-.37-5.93.45-6.86,1.9s.56,3,3.36,3.54l-.92,1.42,3.63.58,1.26-1.95.84-1.3,1.13-1.76.84-1.3,1.28-2-3.62-.58Zm-3,4.57c-1.83-.39-2.8-1.42-2.18-2.39s2.62-1.53,4.57-1.31Z"/><polygon class="cls-54" points="252.48 108.68 237.47 116.18 236.15 115.52 251.15 108.01 252.48 108.68"/><polygon class="cls-66" points="148.58 132.65 121.59 119.15 121.59 76.12 148.58 89.62 148.58 132.65"/><path class="cls-66" d="M122.34,77.46c0,1.42-2.3,2.57-5.15,2.57S112,78.88,112,77.46s2.31-2.58,5.16-2.58S122.34,76,122.34,77.46Z"/><path class="cls-5" d="M122.49,79.09c0,1.43-2.31,2.58-5.16,2.58s-5.16-1.15-5.16-2.58,2.31-2.57,5.16-2.57S122.49,77.67,122.49,79.09Z"/><polygon class="cls-5" points="139.02 92.22 112.74 78.2 121.31 77.46 147.3 90.32 139.02 92.22"/><polygon class="cls-5" points="147.3 131.28 139.02 132.65 139.02 91.81 147.3 90.32 147.3 131.28"/><polygon class="cls-66" points="139.02 133.98 112.03 120.48 112.03 77.46 139.02 90.95 139.02 133.98"/><polygon class="cls-5" points="134.72 102.61 115.34 92.92 115.34 87.04 134.72 96.74 134.72 102.61"/><polygon class="cls-5" points="134.72 107.43 124.52 102.33 124.52 99.33 134.72 104.42 134.72 107.43"/><polygon class="cls-67" points="135.08 134 108.09 120.5 108.09 68.11 135.08 81.61 135.08 134"/><ellipse class="cls-67" cx="103.69" cy="69.45" rx="5.16" ry="2.58"/><path class="cls-5" d="M109,71.09c0,1.42-2.31,2.58-5.16,2.58s-5.16-1.16-5.16-2.58,2.31-2.58,5.16-2.58S109,69.66,109,71.09Z"/><polygon class="cls-5" points="125.53 84.21 99.24 70.19 107.81 69.45 133.8 82.31 125.53 84.21"/><polygon class="cls-5" points="133.8 132.63 125.53 134 125.53 83.81 133.8 82.31 133.8 132.63"/><polygon class="cls-67" points="125.53 135.33 98.53 121.83 98.53 69.45 125.53 82.94 125.53 135.33"/><polygon class="cls-68" points="126.37 139.21 94.59 122.98 94.59 79.95 126.37 96.19 126.37 139.21"/><path class="cls-68" d="M95.35,81.28c0,1.43-2.31,2.58-5.16,2.58S85,82.71,85,81.28s2.3-2.58,5.15-2.58S95.35,79.86,95.35,81.28Z"/><path class="cls-5" d="M95.49,82.92c0,1.43-2.31,2.58-5.16,2.58s-5.15-1.15-5.15-2.58,2.3-2.58,5.15-2.58S95.49,81.5,95.49,82.92Z"/><polygon class="cls-5" points="116.81 98.78 85.74 82.03 94.32 81.28 125.08 96.88 116.81 98.78"/><polygon class="cls-5" points="125.08 137.84 116.81 139.21 116.81 98.38 125.08 96.88 125.08 137.84"/><polygon class="cls-68" points="116.81 140.55 85.04 124.31 85.04 81.28 116.81 97.52 116.81 140.55"/><polygon class="cls-5" points="107.72 106.44 88.34 96.75 88.34 90.87 107.72 100.56 107.72 106.44"/><polygon class="cls-5" points="107.72 111.25 97.53 106.15 97.53 103.15 107.72 108.25 107.72 111.25"/><polygon class="cls-69" points="111.41 139.81 84.42 126.31 84.42 83.28 111.41 96.78 111.41 139.81"/><path class="cls-69" d="M85.17,84.61c0,1.43-2.3,2.58-5.15,2.58S74.86,86,74.86,84.61,77.17,82,80,82,85.17,83.19,85.17,84.61Z"/><path class="cls-5" d="M85.31,86.25c0,1.42-2.3,2.58-5.15,2.58S75,87.67,75,86.25s2.31-2.58,5.16-2.58S85.31,84.83,85.31,86.25Z"/><polygon class="cls-5" points="101.85 99.38 75.56 85.36 84.14 84.61 110.13 97.47 101.85 99.38"/><polygon class="cls-5" points="110.13 138.44 101.85 139.81 101.85 98.97 110.13 97.47 110.13 138.44"/><polygon class="cls-69" points="101.85 141.14 74.86 127.64 74.86 84.61 101.85 98.11 101.85 141.14"/><polygon class="cls-5" points="97.54 109.77 78.17 100.08 78.17 94.2 97.54 103.89 97.54 109.77"/><polygon class="cls-5" points="97.54 114.58 87.35 109.48 87.35 106.49 97.54 111.58 97.54 114.58"/><polygon class="cls-18" points="95.49 138.47 78.19 130.27 78.19 97.1 95.49 105.3 95.49 138.47"/><path class="cls-18" d="M78.94,98.44c0,1.42-2.31,2.58-5.15,2.58s-5.16-1.16-5.16-2.58,2.31-2.58,5.16-2.58S78.94,97,78.94,98.44Z"/><path class="cls-5" d="M79.08,100.08c0,1.42-2.31,2.57-5.15,2.57s-5.16-1.15-5.16-2.57,2.31-2.59,5.16-2.59S79.08,98.65,79.08,100.08Z"/><polygon class="cls-5" points="85.93 107.9 69.34 99.18 77.91 98.44 94.21 106 85.93 107.9"/><polygon class="cls-5" points="94.21 137.1 85.93 138.47 85.93 107.5 94.21 106 94.21 137.1"/><polygon class="cls-18" points="85.93 139.81 68.63 131.61 68.63 98.44 85.93 106.64 85.93 139.81"/><polygon class="cls-70" points="168.81 158.51 143.05 171.39 106.07 153.01 131.83 140.13 168.81 158.51"/><polygon class="cls-6" points="166.39 158.32 144.37 169.51 144.37 160.12 166.39 148.93 166.39 158.32"/><path class="cls-70" d="M108.19,148.33c0,2.52-1,4.57-2.12,4.57s-2.12-2.05-2.12-4.57,1-4.58,2.12-4.58S108.19,145.8,108.19,148.33Z"/><polygon class="cls-70" points="143.05 171.39 106.07 153.01 106.07 143.75 143.4 162.5 143.05 171.39"/><path class="cls-6" d="M144.37,162.11a5,5,0,0,0-1.81,4.25c0,2.43.54,3.8,1.81,3.15Z"/><polygon class="cls-71" points="169.34 149.63 143.8 162.62 106.07 143.75 131.83 130.87 169.34 149.63"/><polygon class="cls-72" points="170.12 151.84 148.73 162.53 118 147.27 139.4 136.57 170.12 151.84"/><polygon class="cls-6" points="168.11 151.67 149.82 160.97 149.82 153.18 168.11 143.87 168.11 151.67"/><path class="cls-73" d="M119.77,143.37c0,2.11-.79,3.81-1.77,3.81s-1.76-1.7-1.76-3.81.79-3.8,1.76-3.8S119.77,141.27,119.77,143.37Z"/><polygon class="cls-73" points="148.73 162.53 118 147.27 118 139.57 149.02 155.15 148.73 162.53"/><path class="cls-6" d="M149.82,154.83a4.13,4.13,0,0,0-1.5,3.53c0,2,.45,3.15,1.5,2.61Z"/><polygon class="cls-74" points="170.56 144.45 149.35 155.24 118 139.57 139.4 128.88 170.56 144.45"/><polygon class="cls-6" points="149.48 137.37 135.94 144.13 126.4 139.36 139.93 132.6 149.48 137.37"/><path class="cls-75" d="M204.4,151c-1.31-.57-14.58-8.6-16.81-8.53s-4.44.59-5.44,1.38.11.76.28.7,4.4-1.72,5.32-1.44,16.93,9.73,16.93,9.73Z"/><path class="cls-75" d="M229.45,138.1c-1.31-.56-14.58-8.59-16.81-8.53s-4.44.6-5.44,1.39.11.76.28.69,4.4-1.71,5.32-1.44S229.73,140,229.73,140Z"/><path class="cls-75" d="M229.44,138.1c-1.12.24-7,3.38-7.56,3.66s-2.18,1.42-3.28,2.09a18.22,18.22,0,0,1-2.08,1.22h0a15.5,15.5,0,0,1-1.75.7c-1.1.43-2.76,1-3.28,1.2a77.13,77.13,0,0,0-7.57,3.9c-.25,1-.35,1.73-.15,1.88s.68,0,.8,2c0,0,.13,1.52,1.11,1.28a39.19,39.19,0,0,0,3.7-1.33c.2-.1,2.86-1.5,3.26-1.78a5.06,5.06,0,0,0,2.23-2.87c.7-2,.55-2.73.83-2.91a8.21,8.21,0,0,1,1-.67,9.16,9.16,0,0,1,.95-.33c.28-.08.12.82.83,2.09a1.6,1.6,0,0,0,2.23.64c.4-.12,3.05-1.38,3.25-1.47s2.73-1.65,3.71-2.39a3.67,3.67,0,0,0,1.1-2.37,4.41,4.41,0,0,1,.8-2.79A2.37,2.37,0,0,0,229.44,138.1Zm-14.85,11.4a4.23,4.23,0,0,1-1.73,2.89c-.35.22-2.45,1.45-3.45,1.93a22.76,22.76,0,0,1-3.29,1.21c-1,.3-.92-.51-1.12-1.36a7.28,7.28,0,0,1-.05-2.93c.2-.6,2.05-1.61,2.58-2a46.22,46.22,0,0,1,5.11-2.3c1.43-.49,1.93-.44,2.3-.15A7,7,0,0,1,214.59,149.5Zm13.78-7c-.2,1.05-.08,1.74-1.13,2.49A31.47,31.47,0,0,1,224,147c-1,.52-3.11,1.4-3.46,1.53s-1.23.39-1.73-1.17a5.14,5.14,0,0,1-.35-2.3,6.19,6.19,0,0,1,2.31-2.16,48.62,48.62,0,0,1,5.11-2.81c.52-.18,2.38-1,2.58-.63A7.48,7.48,0,0,1,228.37,142.48Z"/><path class="cls-76" d="M229.73,138.44c-1.13.24-7,3.37-7.56,3.66s-2.18,1.41-3.28,2.09a18.13,18.13,0,0,1-2.08,1.21h0a17.65,17.65,0,0,1-1.75.7c-1.11.42-2.76.95-3.29,1.19a78.53,78.53,0,0,0-7.56,3.91c-.25,1-.35,1.73-.15,1.87s.68,0,.8,2c0,0,.13,1.51,1.1,1.27a38.55,38.55,0,0,0,3.71-1.33c.2-.1,2.86-1.5,3.26-1.78a5.07,5.07,0,0,0,2.23-2.86c.7-2,.55-2.74.83-2.92a9,9,0,0,1,1-.67,9.16,9.16,0,0,1,1-.33c.27-.08.12.82.82,2.1a1.61,1.61,0,0,0,2.23.63c.41-.12,3.06-1.37,3.26-1.47s2.73-1.64,3.71-2.38a3.71,3.71,0,0,0,1.1-2.38,4.29,4.29,0,0,1,.8-2.78A2.43,2.43,0,0,0,229.73,138.44Zm-14.85,11.39a4.23,4.23,0,0,1-1.73,2.89c-.35.23-2.45,1.45-3.45,1.93a22.08,22.08,0,0,1-3.29,1.22c-1,.29-.92-.52-1.12-1.37a7.28,7.28,0,0,1,0-2.93c.2-.6,2-1.61,2.58-1.94a43.44,43.44,0,0,1,5.11-2.31c1.42-.49,1.93-.44,2.3-.15A7,7,0,0,1,214.88,149.83Zm13.77-7c-.2,1.05-.07,1.74-1.12,2.49a31.47,31.47,0,0,1-3.28,2.07c-1,.52-3.11,1.4-3.46,1.53s-1.23.39-1.73-1.17a5.14,5.14,0,0,1-.35-2.3,6.31,6.31,0,0,1,2.3-2.16,48.31,48.31,0,0,1,5.11-2.8c.53-.19,2.38-1,2.59-.64A7.34,7.34,0,0,1,228.65,142.81Z"/><path class="cls-76" d="M229.54,138.33a76.74,76.74,0,0,0-7.49,3.57c-.53.29-2.18,1.42-3.28,2.1a19.73,19.73,0,0,1-2.08,1.21h0a15.5,15.5,0,0,1-1.75.7c-1.1.43-2.76,1-3.28,1.19a79.71,79.71,0,0,0-7.57,3.91c-.25,1-.35,1.73-.15,1.88s.68,0,.8,2c0,0,.13,1.52,1.11,1.28a39.19,39.19,0,0,0,3.7-1.33c.2-.1,2.86-1.5,3.26-1.78a5.06,5.06,0,0,0,2.23-2.87c.7-2,.55-2.73.83-2.92a10.69,10.69,0,0,1,1-.66,7.28,7.28,0,0,1,1-.33c.28-.09.13.82.83,2.09a1.6,1.6,0,0,0,2.23.64c.4-.12,3-1.38,3.25-1.48s2.73-1.64,3.71-2.38a3.71,3.71,0,0,0,1.1-2.38,4.32,4.32,0,0,1,.8-2.78C230,139.62,229.79,139.1,229.54,138.33Zm-14.78,11.3a4.27,4.27,0,0,1-1.72,2.9c-.36.22-2.46,1.45-3.46,1.93a23.08,23.08,0,0,1-3.28,1.21c-1.05.3-.93-.51-1.13-1.36a7.28,7.28,0,0,1,0-2.93c.2-.6,2-1.61,2.58-1.95a46.22,46.22,0,0,1,5.11-2.3c1.43-.49,1.93-.44,2.3-.15A6.65,6.65,0,0,1,214.76,149.63Zm13.78-7c-.2,1-.08,1.74-1.13,2.49a31.47,31.47,0,0,1-3.28,2.07c-1,.52-3.11,1.4-3.46,1.53s-1.23.38-1.73-1.17a5.18,5.18,0,0,1-.35-2.31,6.27,6.27,0,0,1,2.31-2.15,48.62,48.62,0,0,1,5.11-2.81c.52-.18,2.38-1,2.58-.64A7.53,7.53,0,0,1,228.54,142.62Z"/><polygon class="cls-76" points="228.69 139.15 226.87 139.46 229.44 138.1 229.73 138.44 228.69 139.15"/><polygon class="cls-76" points="204.09 151.01 205.33 150.28 204.06 153.08 203.72 152.69 204.09 151.01"/><polygon class="cls-77" points="152.91 140.36 142.11 145.76 139.8 144.61 150.6 139.21 152.91 140.36"/><path class="cls-6" d="M155.85,142.57c1.32.66,1.32,1.72,0,2.38a6,6,0,0,1-4.75,0c-1.32-.66-1.32-1.72,0-2.38A6,6,0,0,1,155.85,142.57Z"/><polygon class="cls-78" points="175.72 128.22 190.42 119.12 176.65 109.1 148.32 114.58 175.72 128.22"/><path class="cls-54" d="M178.51,63.69c0,1.18-2.55,3.42-5.69,5s-5.69,1.89-5.69.7,2.55-3.42,5.69-5S178.51,62.5,178.51,63.69Z"/><polygon class="cls-54" points="178.51 63.69 167.13 69.38 167.13 59.5 178.51 53.81 178.51 63.69"/><path class="cls-56" d="M178.51,53.81c0,1.18-2.55,3.42-5.69,5s-5.69,1.88-5.69.7,2.55-3.42,5.69-5S178.51,52.62,178.51,53.81Z"/><path class="cls-8" d="M194.54,44.63A6.64,6.64,0,0,1,191,49.92c-1.95,1-3.53.19-3.53-1.76a6.66,6.66,0,0,1,3.53-5.3C193,41.89,194.54,42.68,194.54,44.63Z"/><path class="cls-57" d="M193.13,45.34A4.08,4.08,0,0,1,191,48.57c-1.2.59-2.16.11-2.16-1.08A4,4,0,0,1,191,44.26C192.16,43.67,193.13,44.15,193.13,45.34Z"/><path class="cls-79" d="M251.17,80.55c-.18-5.89-.46-13.5-.37-15.63,1.4-.18,6.51-.62,6.79-3.74.28-1.35,1.33-.61,1.29-.18-.07.68-1.49,14.85-1.68,16.54C257,78.13,256.77,80,251.17,80.55Z"/><path class="cls-49" d="M159.4,113.51a2.75,2.75,0,0,0,2-.3l2.31-1.15c.73-.36,1-.81.59-1l-1.28-.63a2.8,2.8,0,0,0-2,.29l-2.31,1.15c-.72.37-1,.82-.58,1Z"/></g></g></svg>